<?xml version="1.0" standalone="no"?>
<!DOCTYPE svg PUBLIC "-//W3C//DTD SVG 1.1//EN" "http://www.w3.org/Graphics/SVG/1.1/DTD/svg11.dtd" >
<svg xmlns="http://www.w3.org/2000/svg" xmlns:xlink="http://www.w3.org/1999/xlink" version="1.1">
<metadata></metadata>
<defs>
<font id="neon_tubes_2regular" horiz-adv-x="1327" >
<font-face units-per-em="2048" ascent="1638" descent="-410" />
<missing-glyph horiz-adv-x="1024" />
<glyph horiz-adv-x="0" />
<glyph horiz-adv-x="682" />
<glyph unicode=" "  horiz-adv-x="1024" />
<glyph unicode="&#x09;" horiz-adv-x="1024" />
<glyph unicode="&#xa0;" horiz-adv-x="1024" />
<glyph unicode="!" horiz-adv-x="311" d="M102 53q0 -22 16 -37.5t38 -15.5t37.5 15.5t15.5 37.5v168q0 22 -15.5 37.5t-37.5 15.5t-38 -15.5t-16 -37.5v-168zM102 471q0 -22 16 -37.5t38 -15.5t37.5 15.5t15.5 37.5v1114q0 22 -15.5 37.5t-37.5 15.5t-38 -15.5t-16 -37.5v-1114z" />
<glyph unicode="&#x22;" horiz-adv-x="616" d="M102 1247q-2 -23 12 -40.5t36 -18.5q1 0 3 -1t3 -1q21 0 36.5 14t16.5 35l39 344q3 23 -10.5 40.5t-36.5 18.5q-22 3 -39.5 -10.5t-20.5 -36.5zM369 1247q-2 -23 11.5 -40.5t35.5 -18.5q1 0 3 -1t3 -1q21 0 36.5 14t16.5 35l39 344q3 23 -10.5 40.5t-36.5 18.5 q-22 3 -39 -10.5t-20 -36.5z" />
<glyph unicode="#" horiz-adv-x="1499" d="M102 547q0 -22 16 -37.5t38 -15.5h1114q22 0 37.5 15.5t15.5 37.5q0 23 -15.5 38t-37.5 15h-1114q-22 0 -38 -15t-16 -38zM195 1047q0 -22 15.5 -38t37.5 -16h1095q22 0 38 16t16 38t-16 37.5t-38 15.5h-1095q-22 0 -37.5 -15.5t-15.5 -37.5zM352 59q-3 -22 10 -39 t35 -20h9q20 0 35 12.5t18 32.5l211 1534q3 22 -10 39t-35 20t-39.5 -10t-20.5 -35zM852 59q-3 -22 10 -39t35 -20h6q20 0 35 12.5t18 32.5l213 1534q3 22 -10 39t-35 20t-40 -10t-21 -35z" />
<glyph unicode="$" horiz-adv-x="1001" d="M103.5 430.5q-4.5 -22.5 7.5 -41.5q44 -63 104 -110q79 -63 164 -80q18 -7 18 -25v-45q0 -55 37 -92q40 -37 92 -37q54 0 91.5 37.5t37.5 91.5v68q0 13 17 22q57 20 106 60q62 46 90 104q31 64 31 135q0 89 -41 160q-39 60 -102 104q-51 39 -168 80q-13 4 -36 12.5 t-36 12.5q-19 8 -70 26q-108 38 -151 72q-74 57 -74 145q0 42 19 84.5t49 67.5q40 32 106 51q44 10 72.5 46.5t28.5 80.5v49q0 9 6.5 15t15.5 6t15 -6t6 -15v-59q0 -43 25.5 -78t66.5 -47q50 -17 84 -41q37 -25 57 -59q14 -17 35.5 -21t40.5 8q19 13 22.5 35t-10.5 41 q-37 50 -80 82q-50 37 -114 57q-19 3 -19 23v59q0 54 -37.5 91.5t-91.5 37.5t-91.5 -37.5t-37.5 -91.5v-49q0 -18 -18 -22q-86 -20 -150 -72q-52 -43 -80 -109q-26 -59 -26 -127q0 -142 114 -231q9 -7 20.5 -14.5t20 -13t23 -12t21.5 -10t25 -10.5t23 -8.5t25 -9t23 -8.5 q25 -9 67 -27q21 -8 76 -26q99 -35 141 -64q51 -38 72 -73q25 -42 25 -105q0 -98 -76 -156q-44 -28 -80 -43q-38 -14 -62 -47.5t-24 -74.5v-68q0 -9 -7 -14.5t-16 -5.5q-10 0 -16 6t-6 14v45q0 46 -28.5 82.5t-74.5 46.5q-62 13 -118 59q-54 43 -80 84q-12 19 -34 24t-42 -7 q-19 -10 -23.5 -32.5z" />
<glyph unicode="%" horiz-adv-x="1474" d="M102 1352q0 -62 29 -119.5t80 -97.5q17 -14 39.5 -11.5t34.5 19.5q13 19 10.5 40.5t-19.5 35.5q-32 24 -49.5 60t-17.5 73q0 70 49.5 119t118.5 49t118.5 -49t49.5 -119q0 -80 -66 -133q-17 -13 -19.5 -35t9.5 -41q19 -19 43 -19q19 0 33 11q50 39 78 97t28 120 q0 114 -80 194t-194 80t-194.5 -80t-80.5 -194zM324 201q-33 -73 8 -135q19 -31 50.5 -48.5t68.5 -17.5h340q72 0 118 59q44 57 25 129q-6 21 -6 43q0 71 50 120.5t120 49.5q69 0 118.5 -49.5t49.5 -118.5q0 -83 -68 -135q-17 -13 -19.5 -34.5t11.5 -38.5q13 -18 35 -21 t39 10q51 40 79.5 98t28.5 121q0 113 -80 194t-194 81t-194.5 -81.5t-80.5 -195.5q0 -38 8 -71q7 -18 -6 -37q-14 -17 -34 -17h-340q-23 0 -29 17q-13 13 -2 31l663 1409q9 20 2.5 40.5t-26.5 30.5q-20 9 -41 1.5t-31 -27.5z" />
<glyph unicode="&#x26;" horiz-adv-x="1724" d="M102 508q0 36 4 61q9 87 51.5 171t108.5 147l47 47q13 14 35 13.5t35 -15.5q15 -14 14.5 -35t-14.5 -35l-47 -47q-115 -112 -131 -258v-2q-2 -16 -2 -47q0 -110 53 -199v-2q65 -114 186 -168q86 -39 185 -39q33 0 63 6q128 17 230 107h2l16 16q13 15 35 15.5t35 -13.5 q15 -15 15.5 -35.5t-13.5 -35.5l-21 -21l-4 -2q-127 -109 -278 -131h-5q-69 -6 -75 -6q-124 0 -228 49q-71 32 -131 87t-98 122q-68 115 -68 250zM311 1237q-13 72 2 147q19 88 70 152q80 102 219 102q150 0 240 -94q66 -69 78 -141q11 -62 -5 -131q-22 -80 -86 -150 q-39 -39 -92 -73q-19 -10 -38.5 -5.5t-30.5 21.5q-11 19 -6 39.5t22 30.5q41 24 72 55q84 93 65 194q-6 46 -51 91q-60 63 -168 63q-88 0 -141 -65q-36 -44 -48.5 -105t-2.5 -108q8 -33 39 -89t55 -79l2 -2l801 -918q37 -37 88 -37h2l16 2q38 6 66 31h2q34 26 41 80 q3 20 19 33t36 10q21 -1 34 -17t11 -38v-5q-14 -90 -78 -141q-47 -41 -119 -51l-22 -4h-8q-88 0 -160 65l-2 2v2l-801 916q-34 35 -72.5 104t-48.5 113z" />
<glyph unicode="'" horiz-adv-x="350" d="M102 1247q-2 -23 12 -40.5t36 -18.5q1 0 3 -1t3 -1q22 0 37 13.5t16 35.5l39 344q3 23 -10.5 40.5t-36.5 18.5q-22 3 -39.5 -10.5t-20.5 -36.5z" />
<glyph unicode="(" horiz-adv-x="573" d="M102 821q0 -254 74 -467q72 -212 199 -336l4 -4q14 -14 37 -14t39 16q15 15 15 38t-15 38l-4 4q-110 107 -172 293q-68 198 -68 432q0 233 65 428q62 187 170 295l5 2q15 15 15 38t-15 38q-17 17 -39 17t-39 -17l-2 -2q-124 -124 -197 -336q-72 -213 -72 -463z" />
<glyph unicode=")" horiz-adv-x="571" d="M102.5 54q-0.5 -22 16.5 -38q16 -16 37 -16q25 0 39 14l2 4q123 117 200 336q72 216 72 467q0 250 -72 463q-73 212 -194 336l-4 2q-15 17 -38 17t-38 -17q-15 -15 -15 -38t15 -38l2 -2q107 -108 170 -295q67 -192 67 -428q0 -228 -67 -432q-67 -192 -174 -293l-2 -4 q-16 -16 -16.5 -38z" />
<glyph unicode="+" horiz-adv-x="1193" d="M102 639q0 -23 17 -40t41 -17h323q23 0 40.5 17t17.5 40v313q0 6 4 11.5t10 5.5t10 -5.5t4 -11.5v-682q0 -23 17 -39t41 -16q23 0 39 16t16 39v682q0 54 -37 91.5t-90 37.5t-90 -37.5t-37 -91.5v-258h-268q-25 0 -41.5 -16t-16.5 -39zM735 637q0 -23 17.5 -40t40.5 -17 h241q24 0 41 17t17 40t-16.5 39t-41.5 16h-241q-24 0 -41 -16t-17 -39z" />
<glyph unicode="," horiz-adv-x="561" d="M102 160q0 -44 22.5 -83.5t59.5 -64.5q20 -11 42 -6t34 25q11 19 6 40t-24 33q-33 19 -33 56q0 26 18.5 43.5t44.5 17.5q31 0 51 -26t25 -56q12 -68 -24 -139q-45 -79 -140 -109q-22 -6 -32 -25.5t-2 -41.5q4 -17 18.5 -27t32.5 -10q10 0 16 2q137 45 199 160 q58 99 39 209q-12 63 -56 114q-55 58 -127 58q-70 0 -120 -50.5t-50 -119.5z" />
<glyph unicode="-" horiz-adv-x="931" d="M102 737q0 -23 16 -38t38 -15h618q23 0 39 15t16 38q0 22 -16 38t-39 16h-618q-22 0 -38 -16t-16 -38z" />
<glyph unicode="." horiz-adv-x="563" d="M102 154q0 -86 72 -142q17 -14 39 -11.5t35 19.5q14 17 11.5 40t-19.5 36q-31 24 -31 58q0 29 21.5 50t52.5 21q29 0 50 -21t21 -50q0 -36 -28 -58q-19 -13 -22 -36t11 -40q17 -20 43 -20q18 0 33 12q70 51 70 142q0 74 -52.5 127t-125.5 53q-75 0 -128 -53t-53 -127z " />
<glyph unicode="/" horiz-adv-x="1036" d="M106.5 35q6.5 -21 26.5 -31q16 -4 23 -4q34 0 49 31l723 1532q9 20 2 40.5t-27 30.5q-20 9 -41.5 1.5t-30.5 -27.5l-722 -1532q-9 -20 -2.5 -41z" />
<glyph unicode="0" horiz-adv-x="1329" d="M102 555q0 -206 131 -358q127 -155 324 -191q4 -2 10 -2q21 0 36 12.5t18 32.5q5 22 -7 40.5t-34 21.5q-163 32 -263 153q-104 122 -104 291v530q0 190 131 318q133 133 320 133q188 0 321 -133q64 -64 100.5 -147t36.5 -171v-530q0 -158 -110 -291q-102 -120 -269 -153 q-22 -3 -34 -21.5t-7 -40.5q3 -23 22.5 -35.5t41.5 -7.5q199 37 326 191q135 161 135 358v530q0 110 -44 213t-124 181q-77 79 -181.5 121t-218.5 42q-233 0 -393 -163q-79 -78 -121.5 -180.5t-42.5 -213.5v-530z" />
<glyph unicode="1" horiz-adv-x="618" d="M102 1585q0 -23 16 -39t38 -16h217q15 0 25 -9.5t10 -23.5v-1444q0 -22 15.5 -37.5t37.5 -15.5q23 0 39 15.5t16 37.5v1444q0 59 -41.5 100t-101.5 41h-217q-22 0 -38 -15.5t-16 -37.5z" />
<glyph unicode="2" horiz-adv-x="1255" d="M111 184q-24 -69 16 -121q41 -63 123 -63h850q22 0 37.5 15.5t15.5 37.5q0 23 -15.5 39.5t-37.5 16.5h-850q-25 0 -35 16q-8 8 -4 22q28 71 94 148q73 84 274 247q14 11 21 17q216 172 315 289q158 180 158 364q0 80 -33 164q-38 87 -96 140q-131 122 -344 122 q-200 0 -330 -112q-76 -67 -118 -162q-10 -20 -2.5 -41.5t28.5 -30.5q20 -9 40.5 -1t29.5 28q38 78 94 125q100 86 258 86q170 0 270 -92q48 -45 72 -103q23 -61 23 -123q0 -144 -129 -294q-88 -101 -304 -275q-3 -2 -32.5 -26.5t-34.5 -28.5t-32 -25.5t-34.5 -28.5 t-30.5 -26.5t-33 -29t-28.5 -27t-30.5 -29.5t-26.5 -27.5t-26.5 -29.5q-77 -92 -112 -181z" />
<glyph unicode="3" horiz-adv-x="1210" d="M103 298.5q-6 -21.5 3 -40.5q72 -128 199 -192q126 -66 291 -66q215 0 362 131q150 137 150 340q0 104 -39 186q-45 88 -121 152q-155 125 -416 125q-20 0 -24 14q-6 6 0 13l541 434q35 27 47 68.5t-2 80.5q-15 42 -53.5 68t-86.5 26h-669q-22 0 -37 -15t-15 -38 q0 -22 15 -36.5t37 -14.5h669q33 0 41 -25q4 -18 -12 -32l-545 -439l-4 -2l-2 -4q-25 -26 -30 -60.5t10 -66.5q15 -35 47.5 -55.5t72.5 -20.5q221 0 351 -102q60 -48 90 -115q31 -67 31 -141q0 -156 -115 -262q-117 -105 -293 -105q-139 0 -240 52.5t-157 152.5 q-11 19 -31.5 25t-40.5 -4q-18 -10 -24 -31.5z" />
<glyph unicode="4" horiz-adv-x="1443" d="M121 473q19 -34 52 -53t71 -19h440q23 0 39 16t16 38q0 23 -16 38t-39 15h-440q-19 0 -31 18q-9 18 0 33l565 957q12 22 37 14q25 -6 25 -33v-1374q0 -51 36 -87t87 -36t86.5 36t35.5 87v246q0 13 9.5 22.5t23.5 9.5h170q22 0 37.5 16t15.5 38q0 23 -15.5 38t-37.5 15 h-170q-58 0 -99.5 -41t-41.5 -98v-246q0 -6 -4 -11.5t-10 -5.5t-10.5 5.5t-4.5 11.5v1374q0 49 -29 86t-75 49q-46 13 -89.5 -4.5t-68.5 -58.5l-565 -955q-39 -70 0 -141z" />
<glyph unicode="5" horiz-adv-x="1214" d="M106.5 300.5q-6.5 -21.5 4.5 -40.5q53 -99 143 -162q140 -98 348 -98q113 0 213 41q95 38 164 113q133 139 133 352q0 212 -139 354q-69 72 -170 113q-98 39 -219 39q-133 0 -240 -45q-43 -21 -59 -31q-27 -13 -52 2q-16 12 -14 29l72 536q2 12 14 21.5t27 9.5h641 q22 0 37.5 14.5t15.5 36.5q0 23 -15.5 38t-37.5 15h-641q-56 0 -98 -34t-48 -86l-71 -537q-9 -80 59 -129q35 -25 78.5 -26.5t81.5 18.5q42 23 51 26q87 37 199 37q101 0 180 -33q79 -31 133 -88q111 -111 111 -280q0 -170 -105 -281q-55 -58 -129 -88q-73 -33 -172 -33 q-174 0 -289 80q-67 49 -110 125q-9 20 -30 26.5t-40 -3.5q-20 -10 -26.5 -31.5z" />
<glyph unicode="6" horiz-adv-x="1206" d="M102 657q0 -287 82 -430q61 -112 174 -172q107 -55 260 -55q218 0 353 141q133 139 133 377q0 208 -123 346q-136 152 -367 152q-166 0 -299 -86q-19 -10 -23.5 -31.5t7.5 -40.5q12 -18 32.5 -22.5t39.5 6.5q106 69 243 69q184 0 291 -116q94 -108 94 -277 q0 -198 -104 -305q-103 -109 -277 -109q-127 0 -212 43q-80 42 -132 129q-67 128 -67 379l4 224v2q0 264 98 434q61 107 162 164q98 55 229 55q102 0 197 -29q39 -14 64 -26q19 -9 38.5 -2t28.5 26q10 20 3.5 40.5t-25.5 29.5q-46 22 -76 31q-103 34 -230 34 q-160 0 -280 -69q-125 -68 -201 -203q-110 -189 -110 -485z" />
<glyph unicode="7" horiz-adv-x="1196" d="M102 1585q0 -23 16 -38t38 -15h796q13 0 29 -16q7 -21 2 -35l-719 -1403q-9 -20 -2 -41.5t27 -30.5q12 -6 24 -6q31 0 47 29l717 1403q36 70 -4 139q-42 67 -121 67h-796q-22 0 -38 -15.5t-16 -37.5z" />
<glyph unicode="8" horiz-adv-x="1271" d="M102 451q0 -97 43 -179q43 -81 117 -143q154 -129 373 -129q221 0 375 129q74 62 114 143q45 80 45 179q0 98 -45 178q-40 81 -114 143q-154 129 -375 129q-161 0 -276 93t-115 223t115 222.5t276 92.5q163 0 278 -92.5t115 -222.5q0 -69 -36 -132.5t-101 -107.5 q-19 -12 -22.5 -33.5t8.5 -40.5q12 -18 34 -22t41 8q86 60 134.5 146.5t48.5 181.5q0 87 -41 167q-39 76 -109 134q-145 120 -350 120q-203 0 -348 -120q-70 -58 -109 -134q-41 -75 -41 -167q0 -93 41 -168q38 -77 109 -136q142 -118 348 -118q176 0 301 -101.5t125 -242.5 q0 -142 -125 -243.5t-301 -101.5q-175 0 -300.5 102t-125.5 243q0 79 43.5 149.5t120.5 120.5q20 12 24.5 34t-6.5 40q-12 19 -34 23.5t-42 -7.5q-95 -62 -153 -154q-60 -97 -60 -206z" />
<glyph unicode="9" horiz-adv-x="1206" d="M102 1120q0 -208 123 -346q136 -151 367 -151q166 0 299 86q19 10 23.5 31t-7.5 40q-10 18 -31 23t-40 -6q-107 -70 -244 -70q-183 0 -291 117q-94 108 -94 276q0 198 104 305q103 109 279 109q126 0 211 -43q78 -41 131 -129q67 -128 67 -379l-4 -223v-2 q0 -268 -98 -434q-62 -109 -160 -164q-103 -56 -231 -56q-102 0 -197 29q-30 10 -63 27q-19 9 -39 1.5t-29 -26.5q-9 -20 -2.5 -40t25.5 -29q48 -23 75 -31q107 -35 230 -35q158 0 280 70q126 69 201 202q113 194 113 486l4 223q0 287 -82 430q-61 112 -174 172 q-107 55 -258 55q-219 0 -354 -141q-134 -140 -134 -377z" />
<glyph unicode=":" horiz-adv-x="563" d="M102 154q0 -86 72 -142q17 -14 39 -11.5t35 19.5q14 17 11.5 40t-19.5 36q-31 24 -31 58q0 29 21.5 50t52.5 21q29 0 50 -21t21 -50q0 -36 -28 -58q-19 -13 -22 -36t11 -40q17 -20 43 -20q18 0 33 12q70 51 70 142q0 74 -52.5 127t-125.5 53q-75 0 -128 -53t-53 -127z M102 909q0 -87 72 -143q17 -14 39 -11t35 21q14 17 11.5 40t-19.5 36q-31 24 -31 57q0 29 21.5 50.5t52.5 21.5q29 0 50 -21.5t21 -50.5q0 -38 -28 -57q-19 -13 -22 -36t11 -40q17 -20 43 -20q16 0 33 10q70 54 70 143q0 73 -52.5 125.5t-125.5 52.5q-75 0 -128 -52 t-53 -126z" />
<glyph unicode=";" horiz-adv-x="563" d="M102 926q0 -88 72 -144q17 -12 39 -9t35 20q14 17 11.5 39.5t-19.5 35.5q-31 24 -31 58q0 29 21.5 50t52.5 21q29 0 50 -21t21 -50q0 -36 -28 -58q-19 -13 -22 -35.5t11 -39.5q18 -21 43 -21q16 0 33 10q70 54 70 144q0 74 -52.5 126t-125.5 52q-75 0 -128 -52t-53 -126z M104 162q0 -44 22.5 -83.5t59.5 -64.5q20 -11 42 -6t34 25q11 19 6 40t-24 33q-33 19 -33 56q0 26 18.5 43.5t44.5 17.5q31 0 51 -26t25 -56q12 -68 -24 -139q-44 -77 -140 -108q-22 -6 -32 -26t-2 -42q4 -17 18.5 -27t32.5 -10q10 0 16 2q137 45 199 160q58 99 39 209 q-12 63 -56 114q-55 58 -127 58q-70 0 -120 -50.5t-50 -119.5z" />
<glyph unicode="&#x3c;" horiz-adv-x="841" d="M102 520q0 -85 68 -137l477 -383q15 -12 37 -12q27 0 43 22q15 19 13 42t-21 36l-479 383q-25 19 -25 49q0 32 25 51l479 381q19 13 21 37t-13 43q-13 17 -37 19.5t-43 -11.5l-477 -381q-68 -55 -68 -139z" />
<glyph unicode="=" horiz-adv-x="966" d="M102 416q0 -23 16.5 -39.5t41.5 -16.5h649q23 0 39 16.5t16 39.5t-16 40t-39 17h-649q-24 0 -41 -16.5t-17 -40.5zM102 866q0 -23 16.5 -39t41.5 -16h649q23 0 39 16t16 39q0 24 -16 41t-39 17h-649q-24 0 -41 -17t-17 -41z" />
<glyph unicode="&#x3e;" horiz-adv-x="841" d="M103 51.5q-2 -23.5 12 -41.5q16 -22 45 -22q20 0 35 12l479 383q65 52 65 137q0 84 -65 139l-479 381q-19 14 -43 11.5t-37 -19.5q-14 -18 -12 -42.5t20 -37.5l479 -381q25 -19 25 -51q0 -30 -25 -49l-479 -383q-18 -13 -20 -36.5z" />
<glyph unicode="?" horiz-adv-x="1054" d="M104 1502.5q-5 -21.5 7 -40.5q10 -20 32 -25t41 7q145 88 281 88q198 0 303 -111q81 -84 78 -204q-3 -94 -58 -158q-36 -42 -141 -109q-45 -30 -63.5 -42.5t-54.5 -41t-62 -55.5q-90 -85 -90 -225v-103q0 -22 16 -37.5t39 -15.5q22 0 37.5 15.5t15.5 37.5v103 q0 93 58 151q43 43 162 123q42 27 62 40.5t51 38.5t52 50q79 91 82 223q6 168 -106 283q-66 69 -165 106t-216 37q-168 0 -336 -104q-20 -10 -25 -31.5zM379 53q0 -22 15.5 -37.5t37.5 -15.5t37.5 15.5t15.5 37.5v170q0 22 -15.5 37.5t-37.5 15.5t-37.5 -15.5t-15.5 -37.5 v-170z" />
<glyph unicode="@" horiz-adv-x="1769" d="M102 741q0 -149 52 -283t149 -237q101 -107 229 -162q136 -59 293 -59q146 0 236 20q23 4 35.5 23t7.5 41q-4 22 -23 34t-41 7q-93 -19 -215 -19q-127 0 -250 52q-110 49 -192 137q-84 87 -129 202.5t-45 243.5q0 134 43 254t123 211q180 201 481 201q314 0 500 -160 q82 -75 129 -170t65 -213q19 -135 -2 -246q-22 -106 -73 -163q-21 -27 -58 -45q-27 -14 -55 2q-24 12 -31 41q-6 27 -6 57v577q0 53 -37.5 90t-89.5 37q-51 0 -87.5 -34t-39.5 -84q-119 116 -235 116q-190 0 -318 -137q-127 -136 -127 -334q0 -200 127 -333 q128 -140 318 -140q87 0 163 39q70 38 113 94q14 19 11.5 41t-19.5 35q-17 14 -40 11.5t-36 -19.5q-35 -44 -78 -68q-50 -24 -114 -24q-146 0 -240 102q-98 106 -98 262q0 154 98 260q95 103 240 103q81 0 174 -100q25 -25 59 -25q44 0 76.5 32t32.5 76q0 8 5.5 13.5 t14.5 5.5q8 0 13.5 -6t5.5 -13v-577q0 -37 10 -82q15 -71 84 -111q75 -43 151 -6q53 24 94 74q70 83 97 211q27 127 4 285q-20 127 -76 243q-65 123 -156 203q-210 186 -569 186q-349 0 -561 -235q-93 -106 -143 -245t-50 -292z" />
<glyph unicode="A" horiz-adv-x="1480" d="M104 78q-8 -22 1.5 -42t31.5 -26q12 -4 17 -4q38 0 51 37l504 1473q7 22 30 22q26 0 33 -22l289 -840v-2l2 -2q6 -13 -2 -29q-10 -10 -21 -10h-393q-54 0 -91.5 -37.5t-37.5 -91.5t37.5 -91.5t91.5 -37.5h473q28 0 41 -27l113 -305q7 -22 27 -31.5t40 -1.5 q22 7 31.5 27.5t1.5 42.5l-112 307l-2 2q-17 43 -55.5 68.5t-84.5 25.5h-473q-20 0 -20 21q0 20 20 20h393q68 0 109 60q24 36 24 75q0 27 -12 54l-287 837q-15 43 -52 69t-83 26t-82 -26t-51 -69z" />
<glyph unicode="B" horiz-adv-x="1323" d="M102 141q0 -59 42 -100t102 -41h520q187 0 321 131q134 134 134 320q0 89 -35 171.5t-99 145.5q-134 131 -319 131h-395q-23 0 -39.5 -15.5t-16.5 -37.5q0 -23 16 -38t40 -15h395q143 0 244.5 -100.5t101.5 -241.5q0 -140 -102 -242q-100 -100 -246 -100h-520 q-15 0 -25 9t-10 23v1356q0 14 10 23.5t25 9.5h438q131 0 224 -91t93 -220q0 -103 -59 -183q-14 -19 -10.5 -41t22.5 -34q19 -14 41 -10.5t35 22.5q80 113 80 246q0 172 -125 297q-125 122 -301 122h-438q-60 0 -102 -41t-42 -100v-1356z" />
<glyph unicode="C" d="M102 565q0 -145 71 -271t193.5 -203t266.5 -85l6 -6h33q100 0 195 37t171 104t124.5 157t62.5 189q3 22 -10.5 39.5t-36.5 20.5q-22 3 -39.5 -10.5t-20.5 -36.5q-26 -166 -149 -277q-120 -105 -277 -114h-20q-187 0 -323 135t-136 321v516q0 182 130 313.5t312 137.5h17 q171 0 297 -111q125 -113 147 -276q3 -23 21.5 -36.5t40.5 -10.5t35 20.5t10 40.5q-13 98 -61.5 187t-123.5 155q-146 131 -350 137h-16q-113 0 -218 -41.5t-184 -119.5q-80 -81 -124 -183t-44 -213v-516z" />
<glyph unicode="D" horiz-adv-x="1325" d="M102 182q0 -23 16 -39t38 -16q23 0 39 16t16 39v1315q0 13 9.5 23t23.5 10h434q182 0 309 -127t127 -309v-549q0 -182 -127 -309t-309 -127h-393q-23 0 -39.5 -16.5t-16.5 -39.5q0 -22 16.5 -37.5t39.5 -15.5h393q108 0 208 41.5t177 118.5t118.5 177t41.5 208v549 q0 108 -41.5 208t-118.5 177t-176.5 118t-208.5 41h-434q-59 0 -100.5 -41.5t-41.5 -99.5v-1315z" />
<glyph unicode="E" horiz-adv-x="1224" d="M102 143v613q0 59 42 101t100 42h825q22 0 37.5 -16t15.5 -39t-15.5 -39.5t-37.5 -16.5h-825q-14 0 -24.5 -9.5t-10.5 -22.5v-613q0 -15 10.5 -24.5t24.5 -9.5h825q22 0 37.5 -16t15.5 -38q0 -23 -15.5 -39t-37.5 -16h-825q-59 0 -100.5 41.5t-41.5 101.5zM102 1001v494 q0 60 41.5 101.5t100.5 41.5h825q22 0 37.5 -15.5t15.5 -37.5q0 -23 -15.5 -39t-37.5 -16h-825q-14 0 -24.5 -10t-10.5 -25v-494q0 -23 -15 -39t-38 -16t-38.5 16t-15.5 39z" />
<glyph unicode="F" horiz-adv-x="1226" d="M102 53v703q0 58 41.5 99.5t100.5 41.5h825q23 0 39 -15.5t16 -37.5q0 -23 -16 -39.5t-39 -16.5h-825q-14 0 -24.5 -9.5t-10.5 -22.5v-703q0 -22 -15 -37.5t-38 -15.5t-38.5 15.5t-15.5 37.5zM102 1001v496q0 58 41.5 99.5t100.5 41.5h825q23 0 39 -15.5t16 -37.5 q0 -23 -16 -39t-39 -16h-825q-14 0 -24.5 -10t-10.5 -23v-496q0 -23 -15 -39t-38 -16t-38.5 16t-15.5 39z" />
<glyph unicode="G" horiz-adv-x="1325" d="M102 561q0 -114 44.5 -218t120 -179t179.5 -119.5t218 -44.5q113 0 216.5 44.5t178.5 119.5t119.5 179t44.5 218v180q0 60 -42 102t-102 42h-411q-23 0 -39.5 -16t-16.5 -38q0 -23 16.5 -39t39.5 -16h411q15 0 25 -10t10 -25v-180q0 -187 -132 -319.5t-318 -132.5 q-188 0 -320.5 132.5t-132.5 319.5v518q0 183 127 314t309 137h17q171 0 297 -111q128 -112 149 -278q3 -22 21 -35t40 -10t35.5 20t10.5 39q-13 99 -61.5 188.5t-123.5 155.5q-151 133 -352 139h-16q-113 0 -216 -42t-182 -121q-164 -164 -164 -396v-518z" />
<glyph unicode="H" horiz-adv-x="1269" d="M102 53v1532q0 22 15.5 37.5t38.5 15.5t38 -15.5t15 -37.5v-1532q0 -22 -15 -37.5t-38 -15.5t-38.5 15.5t-15.5 37.5zM268 848q0 22 16 37.5t38 15.5h565q59 0 101 -41.5t42 -99.5v-637q0 -14 14 -14q15 0 15 14v1462q0 22 16 37.5t39 15.5q22 0 37.5 -15.5t15.5 -37.5 v-1462q0 -51 -36 -87t-87 -36t-86.5 36t-35.5 87v637q0 13 -10.5 23t-24.5 10h-565q-22 0 -38 16t-16 39z" />
<glyph unicode="I" horiz-adv-x="311" d="M102 53q0 -22 15.5 -37.5t38.5 -15.5q22 0 37.5 15.5t15.5 37.5v1532q0 22 -15.5 37.5t-37.5 15.5q-23 0 -38.5 -15.5t-15.5 -37.5v-1532z" />
<glyph unicode="J" horiz-adv-x="1036" d="M102 416q0 -172 122 -294t294 -122t294 122t122 294v1167q0 23 -16 39t-39 16q-22 0 -38 -16t-16 -39v-1167q0 -128 -89.5 -217.5t-217.5 -89.5t-217.5 89.5t-89.5 217.5q0 23 -15.5 38t-37.5 15q-24 0 -40 -15t-16 -38z" />
<glyph unicode="K" horiz-adv-x="1206" d="M102 53v1518q0 23 16 38t38 15t37.5 -15t15.5 -38v-1518q0 -22 -15.5 -37.5t-37.5 -15.5t-38 15.5t-16 37.5zM245.5 678.5q-3.5 21.5 8.5 40.5l608 866q30 43 86 53q8 1 16 1q46 0 80 -29q36 -34 42 -80q1 -8 1 -16q0 -37 -22 -70l-412 -588q-13 -17 -13 -35 q0 -17 11 -35l445 -704q12 -19 7.5 -40.5t-24.5 -33.5q-11 -8 -28 -8q-29 0 -45 25l-445 704q-27 42 -27 91v5q2 52 31 93l412 587q7 14 -2 23q-6 4 -14 4q-6 0 -11 -8l-608 -867q-12 -19 -34.5 -22.5t-39.5 10.5q-19 12 -22.5 33.5z" />
<glyph unicode="L" horiz-adv-x="1030" d="M102 141q0 -58 41.5 -99.5t100.5 -41.5h630q22 0 38 15.5t16 37.5q0 23 -16 39.5t-38 16.5h-630q-14 0 -23.5 9.5t-9.5 22.5v1444q0 22 -16 37.5t-39 15.5q-22 0 -38 -15.5t-16 -37.5v-1444z" />
<glyph unicode="M" horiz-adv-x="1703" d="M102 61q0 -23 16 -38t38 -15q23 0 38 15t15 38v1446q0 11 6.5 17t13.5 6q19 6 27 -12l477 -1102q18 -36 50 -57t71 -21q40 0 73 21.5t48 56.5l473 1095q7 20 27 15q18 -6 18 -25v-1448q0 -22 16 -37.5t39 -15.5q22 0 38 15.5t16 37.5v1448q0 47 -33 88q-28 32 -74 41 q-14 3 -27 3q-28 0 -55 -13q-45 -18 -63 -66l-473 -1095q-7 -15 -23 -15t-23 15l-477 1100q-21 47 -63 67q-27 12 -59 12q-12 0 -25 -2q-41 -8 -72 -43q-33 -33 -33 -86v-1446z" />
<glyph unicode="N" horiz-adv-x="1320" d="M102 61q0 -22 16 -37.5t38 -15.5q23 0 39 15.5t16 37.5v1418q0 22 18 22q18 6 27 -12l713 -1405q23 -43 63 -62q26 -12 53 -12q16 0 33 4q46 10 73.5 46t27.5 83v1450q0 22 -15.5 38t-38.5 16q-22 0 -37.5 -16t-15.5 -38v-1450q0 -18 -18 -24q-19 -5 -29 12l-713 1407 q-22 42 -63 61q-27 12 -55 12q-15 0 -31 -3q-44 -10 -72.5 -46.5t-28.5 -82.5v-1418z" />
<glyph unicode="O" d="M102 557q0 -204 131 -360t326 -191q4 -2 10 -2q21 0 36 12.5t18 32.5q5 22 -8 40.5t-35 21.5q-163 32 -265 155q-106 125 -106 291v526q0 187 133 320t322 133t319 -133q65 -63 100 -146t35 -174v-526q0 -168 -108 -291q-98 -122 -262 -155q-23 -3 -35.5 -21.5 t-7.5 -40.5q3 -23 21 -35.5t40 -7.5q96 17 180.5 66.5t145.5 124.5q133 155 133 360v526q0 112 -43 215t-123 181q-78 79 -180.5 121t-216.5 42q-233 0 -396 -163q-79 -78 -121.5 -180.5t-42.5 -215.5v-526z" />
<glyph unicode="P" horiz-adv-x="1316" d="M102 53q0 -22 16 -37.5t38 -15.5q23 0 38 15.5t15 37.5v1444q0 13 10.5 24t24.5 11h547q132 0 224.5 -93.5t92.5 -224.5q0 -132 -92.5 -224.5t-224.5 -92.5h-447q-22 0 -37.5 -16t-15.5 -39q0 -22 15.5 -38t37.5 -16h447q176 0 301 125q122 122 122 301q0 177 -122 299 q-125 125 -301 125h-547q-59 0 -100.5 -41.5t-41.5 -99.5v-1444z" />
<glyph unicode="Q" horiz-adv-x="1445" d="M102 567q0 -231 164 -395q78 -78 179.5 -120t213.5 -42q169 0 306 90q19 12 22.5 33.5t-8.5 40.5t-33.5 23.5t-40.5 -7.5q-115 -73 -246 -73q-186 0 -317 131q-133 133 -133 319v514q0 188 133 318q130 133 317 133q188 0 318 -133q131 -128 131 -318v-514 q0 -118 -53 -213q-16 -33 -16 -68q0 -10 1 -20q5 -41 39 -80l170 -170q19 -16 39 -16t39 16q15 15 15 37t-15 39l-172 170q-17 16 -6 41q68 121 68 264v514q0 113 -42.5 214.5t-121.5 179.5q-78 79 -179.5 121t-214.5 42q-233 0 -393 -163q-79 -78 -121.5 -179.5 t-42.5 -214.5v-514z" />
<glyph unicode="R" horiz-adv-x="1386" d="M102 59q0 -23 16 -38t38 -15q23 0 38 15t15 38v1444q0 13 10.5 23t24.5 10h547q132 0 224.5 -92.5t92.5 -224.5q0 -131 -92.5 -224.5t-224.5 -93.5h-377q-51 0 -87 -35t-36 -86t36 -87t87 -36h346q50 0 93.5 -26.5t68.5 -71.5l262 -522q9 -20 30 -27t41 2q20 10 27 32 t-4 42l-262 520q-35 72 -105 117q-71 41 -151 41h-346q-6 0 -10.5 5t-4.5 11t4.5 10.5t10.5 4.5h377q176 0 301 125q122 122 122 299q0 179 -122 301q-125 125 -301 125h-547q-58 0 -100 -41.5t-42 -100.5v-1444z" />
<glyph unicode="S" horiz-adv-x="1224" d="M104.5 296q-4.5 -22 6.5 -40q57 -87 135 -145q153 -111 379 -111q202 0 346 113q74 56 112 133q39 77 39 172q0 117 -53 200q-44 74 -127 136q-32 22 -75 42t-66 29t-80 29q-21 7 -94 35q-82 32 -92 35q-5 2 -15 5q-132 49 -180 84q-5 3 -10 7q-107 82 -107 207 q0 63 26.5 123t69.5 94q111 88 304 88q170 0 286 -84q48 -38 80 -82q12 -18 34 -21t40 9q17 12 20.5 34t-8.5 39q-48 65 -102 105q-141 106 -350 106q-231 0 -369 -110q-63 -51 -102 -137q-33 -73 -33 -164q0 -176 145 -291l22 -16t25 -15.5t23.5 -13t27 -13t25 -11t28 -12 t26 -10.5t29.5 -11.5t28 -10.5q44 -14 90 -32q19 -8 54 -21t44 -16q5 -2 15 -5q123 -43 171 -76q4 -3 7 -5q67 -49 100 -105q37 -63 37 -145q0 -70 -27 -125q-25 -52 -82 -96q-120 -91 -282 -91q-190 0 -316 91q-65 47 -108 114q-12 19 -33.5 24t-40.5 -7q-18 -10 -22.5 -32 z" />
<glyph unicode="T" horiz-adv-x="1318" d="M102 1585q0 -23 16 -38t38 -15h940q6 0 10 -5t4 -11q0 -15 -14 -15h-348q-59 0 -100.5 -41.5t-41.5 -99.5v-1307q0 -22 15.5 -37.5t37.5 -15.5q23 0 38.5 15.5t15.5 37.5v1307q0 14 10.5 24.5t24.5 10.5h348q51 0 86 35.5t35 85.5q0 51 -35 86.5t-86 35.5h-940 q-22 0 -38 -15.5t-16 -37.5z" />
<glyph unicode="U" horiz-adv-x="1318" d="M102 557q0 -111 42.5 -213t121.5 -180q78 -79 180 -121.5t213 -42.5q232 0 396 164q78 78 120 180.5t42 212.5v1028q0 22 -15.5 37.5t-38.5 15.5q-22 0 -37.5 -15.5t-15.5 -37.5v-1028q0 -89 -34 -171.5t-97 -145.5q-134 -134 -320 -134q-89 0 -171.5 35t-145.5 99 q-133 130 -133 317v1028q0 22 -15 37.5t-38 15.5q-22 0 -38 -15.5t-16 -37.5v-1028z" />
<glyph unicode="V" horiz-adv-x="1480" d="M104 1567l500 -1471q15 -44 51 -70t82 -26t83 26t52 70l502 1471q8 22 -1.5 42t-31.5 27q-22 6 -41 -3.5t-26 -30.5l-504 -1471q-7 -25 -33 -25q-22 0 -30 25l-502 1471q-7 21 -26.5 30.5t-41.5 3.5q-22 -7 -31.5 -27t-1.5 -42z" />
<glyph unicode="W" horiz-adv-x="2066" d="M104 1573l353 -1464q10 -49 48 -79t89 -30q50 0 87.5 30t49.5 79l268 1112q6 24 33 24q29 0 33 -24l268 -1112q12 -49 49.5 -79t87.5 -30t88 30t50 79l354 1464q5 22 -6.5 40.5t-32.5 22.5q-22 6 -41.5 -5.5t-23.5 -33.5l-355 -1464q-6 -27 -33 -27q-26 0 -32 27 l-269 1112q-11 48 -48.5 78.5t-88.5 30.5q-49 0 -87 -30.5t-50 -78.5l-268 -1112q-6 -27 -33 -27q-29 0 -33 27l-354 1464q-5 22 -23.5 33.5t-40.5 5.5q-22 -5 -33.5 -23t-5.5 -40z" />
<glyph unicode="X" horiz-adv-x="1390" d="M104.5 48q-4.5 22 6.5 40l954 1487q24 44 76 53q14 4 28 4q33 0 64 -20q42 -28 52 -76q3 -13 3 -26q0 -34 -20 -66l-453 -709q-10 -16 -10 -33t10 -34l365 -582q12 -19 7 -40t-24 -32q-11 -8 -26 -8q-29 0 -45 25l-367 579q-25 40 -25 88q0 52 27 93l453 710q6 13 -4 23 q-6 2 -13 2q-9 -4 -10 -8l-952 -1487q-12 -19 -33.5 -23t-40.5 8q-18 10 -22.5 32zM104.5 1602.5q4.5 21.5 22.5 33.5q19 12 40.5 7.5t33.5 -23.5l401 -627q11 -19 6.5 -40t-22.5 -31q-15 -9 -29 -9q-29 0 -45 25l-401 625q-11 18 -6.5 39.5z" />
<glyph unicode="Y" horiz-adv-x="1353" d="M104.5 1596q4.5 22 22.5 34q19 12 40.5 7.5t33.5 -23.5l430 -668q12 -19 7 -40.5t-24 -33.5q-16 -8 -28 -8q-27 0 -45 25l-430 667q-11 18 -6.5 40zM596 53v574q0 86 43 153l516 805q11 19 32 24t40 -7t23.5 -33.5t-7.5 -40.5l-516 -805q-27 -43 -27 -96v-574 q0 -22 -15.5 -37.5t-37.5 -15.5t-36.5 15.5t-14.5 37.5z" />
<glyph unicode="Z" horiz-adv-x="1318" d="M102 1585q0 -23 15.5 -38t38.5 -15h907q12 0 20.5 -7.5t10.5 -13.5q9 -19 -4 -34l-949 -1250q-24 -33 -28 -73q-1 -7 -1 -14q0 -32 15 -62q19 -35 53.5 -56.5t73.5 -21.5h907q23 0 39.5 15.5t16.5 37.5q0 23 -16 38t-40 15h-907q-17 0 -31 21q-10 19 4 35l949 1249 q25 33 29 73q1 7 1 13q0 33 -16 64q-19 36 -52.5 56.5t-74.5 20.5h-907q-23 0 -38.5 -15.5t-15.5 -37.5z" />
<glyph unicode="[" horiz-adv-x="573" d="M102 821q0 -254 74 -467q72 -212 199 -336l4 -4q14 -14 37 -14t39 16q15 15 15 38t-15 38l-4 4q-110 107 -172 293q-68 198 -68 432q0 233 65 428q62 187 170 295l5 2q15 15 15 38t-15 38q-17 17 -39 17t-39 -17l-2 -2q-124 -124 -197 -336q-72 -213 -72 -463z" />
<glyph unicode="\" horiz-adv-x="1036" d="M106.5 1603.5q6.5 20.5 26.5 30.5q20 9 41.5 1.5t30.5 -27.5l723 -1532q9 -20 2 -41t-27 -31q-16 -4 -22 -4q-16 0 -30 8.5t-20 22.5l-722 1532q-9 20 -2.5 40.5z" />
<glyph unicode="]" horiz-adv-x="571" d="M102.5 54q-0.5 -22 16.5 -38q16 -16 37 -16q25 0 39 14l2 4q123 117 200 336q72 216 72 467q0 250 -72 463q-73 212 -194 336l-4 2q-15 17 -38 17t-38 -17q-15 -15 -15 -38t15 -38l2 -2q107 -108 170 -295q67 -192 67 -428q0 -228 -67 -432q-67 -192 -174 -293l-2 -4 q-16 -16 -16.5 -38z" />
<glyph unicode="^" horiz-adv-x="845" d="M103.5 1292q2.5 -22 19.5 -35q17 -14 40 -11t36 20l196 247q13 13 27 13q17 0 27 -13l198 -247q15 -21 41 -21q20 0 35 12q17 13 19.5 35t-11.5 41l-199 248q-43 53 -110 53q-64 0 -111 -53l-196 -248q-14 -19 -11.5 -41z" />
<glyph unicode="_" horiz-adv-x="1263" d="M102 -131q0 -22 16 -37.5t38 -15.5h950q23 0 39 15.5t16 37.5q0 23 -16 38t-39 15h-950q-22 0 -38 -15t-16 -38z" />
<glyph unicode="`" horiz-adv-x="542" d="M104 2216q-5 -23 7 -43l225 -363q16 -26 49 -26q18 0 29 8q20 12 25 35t-7 43l-225 362q-12 20 -35 25.5t-43 -6.5t-25 -35z" />
<glyph unicode="a" horiz-adv-x="1480" d="M104 78q-8 -22 1.5 -42t31.5 -26q12 -4 17 -4q38 0 51 37l504 1473q7 22 30 22q26 0 33 -22l289 -840v-2l2 -2q6 -13 -2 -29q-10 -10 -21 -10h-393q-54 0 -91.5 -37.5t-37.5 -91.5t37.5 -91.5t91.5 -37.5h473q28 0 41 -27l113 -305q7 -22 27 -31.5t40 -1.5 q22 7 31.5 27.5t1.5 42.5l-112 307l-2 2q-17 43 -55.5 68.5t-84.5 25.5h-473q-20 0 -20 21q0 20 20 20h393q68 0 109 60q24 36 24 75q0 27 -12 54l-287 837q-15 43 -52 69t-83 26t-82 -26t-51 -69z" />
<glyph unicode="b" horiz-adv-x="1323" d="M102 141q0 -59 42 -100t102 -41h520q187 0 321 131q134 134 134 320q0 89 -35 171.5t-99 145.5q-134 131 -319 131h-395q-23 0 -39.5 -15.5t-16.5 -37.5q0 -23 16 -38t40 -15h395q143 0 244.5 -100.5t101.5 -241.5q0 -140 -102 -242q-100 -100 -246 -100h-520 q-15 0 -25 9t-10 23v1356q0 14 10 23.5t25 9.5h438q131 0 224 -91t93 -220q0 -103 -59 -183q-14 -19 -10.5 -41t22.5 -34q19 -14 41 -10.5t35 22.5q80 113 80 246q0 172 -125 297q-125 122 -301 122h-438q-60 0 -102 -41t-42 -100v-1356z" />
<glyph unicode="c" d="M102 565q0 -145 71 -271t193.5 -203t266.5 -85l6 -6h33q100 0 195 37t171 104t124.5 157t62.5 189q3 22 -10.5 39.5t-36.5 20.5q-22 3 -39.5 -10.5t-20.5 -36.5q-26 -166 -149 -277q-120 -105 -277 -114h-20q-187 0 -323 135t-136 321v516q0 182 130 313.5t312 137.5h17 q171 0 297 -111q125 -113 147 -276q3 -23 21.5 -36.5t40.5 -10.5t35 20.5t10 40.5q-13 98 -61.5 187t-123.5 155q-146 131 -350 137h-16q-113 0 -218 -41.5t-184 -119.5q-80 -81 -124 -183t-44 -213v-516z" />
<glyph unicode="d" horiz-adv-x="1325" d="M102 182q0 -23 16 -39t38 -16q23 0 39 16t16 39v1315q0 13 9.5 23t23.5 10h434q182 0 309 -127t127 -309v-549q0 -182 -127 -309t-309 -127h-393q-23 0 -39.5 -16.5t-16.5 -39.5q0 -22 16.5 -37.5t39.5 -15.5h393q108 0 208 41.5t177 118.5t118.5 177t41.5 208v549 q0 108 -41.5 208t-118.5 177t-176.5 118t-208.5 41h-434q-59 0 -100.5 -41.5t-41.5 -99.5v-1315z" />
<glyph unicode="e" horiz-adv-x="1224" d="M102 143v613q0 59 42 101t100 42h825q22 0 37.5 -16t15.5 -39t-15.5 -39.5t-37.5 -16.5h-825q-14 0 -24.5 -9.5t-10.5 -22.5v-613q0 -15 10.5 -24.5t24.5 -9.5h825q22 0 37.5 -16t15.5 -38q0 -23 -15.5 -39t-37.5 -16h-825q-59 0 -100.5 41.5t-41.5 101.5zM102 1001v494 q0 60 41.5 101.5t100.5 41.5h825q22 0 37.5 -15.5t15.5 -37.5q0 -23 -15.5 -39t-37.5 -16h-825q-14 0 -24.5 -10t-10.5 -25v-494q0 -23 -15 -39t-38 -16t-38.5 16t-15.5 39z" />
<glyph unicode="f" horiz-adv-x="1226" d="M102 53v703q0 58 41.5 99.5t100.5 41.5h825q23 0 39 -15.5t16 -37.5q0 -23 -16 -39.5t-39 -16.5h-825q-14 0 -24.5 -9.5t-10.5 -22.5v-703q0 -22 -15 -37.5t-38 -15.5t-38.5 15.5t-15.5 37.5zM102 1001v496q0 58 41.5 99.5t100.5 41.5h825q23 0 39 -15.5t16 -37.5 q0 -23 -16 -39t-39 -16h-825q-14 0 -24.5 -10t-10.5 -23v-496q0 -23 -15 -39t-38 -16t-38.5 16t-15.5 39z" />
<glyph unicode="g" horiz-adv-x="1325" d="M102 561q0 -114 44.5 -218t120 -179t179.5 -119.5t218 -44.5q113 0 216.5 44.5t178.5 119.5t119.5 179t44.5 218v180q0 60 -42 102t-102 42h-411q-23 0 -39.5 -16t-16.5 -38q0 -23 16.5 -39t39.5 -16h411q15 0 25 -10t10 -25v-180q0 -187 -132 -319.5t-318 -132.5 q-188 0 -320.5 132.5t-132.5 319.5v518q0 183 127 314t309 137h17q171 0 297 -111q128 -112 149 -278q3 -22 21 -35t40 -10t35.5 20t10.5 39q-13 99 -61.5 188.5t-123.5 155.5q-151 133 -352 139h-16q-113 0 -216 -42t-182 -121q-164 -164 -164 -396v-518z" />
<glyph unicode="h" horiz-adv-x="1269" d="M102 53v1532q0 22 15.5 37.5t38.5 15.5t38 -15.5t15 -37.5v-1532q0 -22 -15 -37.5t-38 -15.5t-38.5 15.5t-15.5 37.5zM268 848q0 22 16 37.5t38 15.5h565q59 0 101 -41.5t42 -99.5v-637q0 -14 14 -14q15 0 15 14v1462q0 22 16 37.5t39 15.5q22 0 37.5 -15.5t15.5 -37.5 v-1462q0 -51 -36 -87t-87 -36t-86.5 36t-35.5 87v637q0 13 -10.5 23t-24.5 10h-565q-22 0 -38 16t-16 39z" />
<glyph unicode="i" horiz-adv-x="311" d="M102 53q0 -22 15.5 -37.5t38.5 -15.5q22 0 37.5 15.5t15.5 37.5v1532q0 22 -15.5 37.5t-37.5 15.5q-23 0 -38.5 -15.5t-15.5 -37.5v-1532z" />
<glyph unicode="j" horiz-adv-x="1036" d="M102 416q0 -172 122 -294t294 -122t294 122t122 294v1167q0 23 -16 39t-39 16q-22 0 -38 -16t-16 -39v-1167q0 -128 -89.5 -217.5t-217.5 -89.5t-217.5 89.5t-89.5 217.5q0 23 -15.5 38t-37.5 15q-24 0 -40 -15t-16 -38z" />
<glyph unicode="k" horiz-adv-x="1206" d="M102 53v1518q0 23 16 38t38 15t37.5 -15t15.5 -38v-1518q0 -22 -15.5 -37.5t-37.5 -15.5t-38 15.5t-16 37.5zM245.5 678.5q-3.5 21.5 8.5 40.5l608 866q30 43 86 53q8 1 16 1q46 0 80 -29q36 -34 42 -80q1 -8 1 -16q0 -37 -22 -70l-412 -588q-13 -17 -13 -35 q0 -17 11 -35l445 -704q12 -19 7.5 -40.5t-24.5 -33.5q-11 -8 -28 -8q-29 0 -45 25l-445 704q-27 42 -27 91v5q2 52 31 93l412 587q7 14 -2 23q-6 4 -14 4q-6 0 -11 -8l-608 -867q-12 -19 -34.5 -22.5t-39.5 10.5q-19 12 -22.5 33.5z" />
<glyph unicode="l" horiz-adv-x="1030" d="M102 141q0 -58 41.5 -99.5t100.5 -41.5h630q22 0 38 15.5t16 37.5q0 23 -16 39.5t-38 16.5h-630q-14 0 -23.5 9.5t-9.5 22.5v1444q0 22 -16 37.5t-39 15.5q-22 0 -38 -15.5t-16 -37.5v-1444z" />
<glyph unicode="m" horiz-adv-x="1703" d="M102 61q0 -23 16 -38t38 -15q23 0 38 15t15 38v1446q0 11 6.5 17t13.5 6q19 6 27 -12l477 -1102q18 -36 50 -57t71 -21q40 0 73 21.5t48 56.5l473 1095q7 20 27 15q18 -6 18 -25v-1448q0 -22 16 -37.5t39 -15.5q22 0 38 15.5t16 37.5v1448q0 47 -33 88q-28 32 -74 41 q-14 3 -27 3q-28 0 -55 -13q-45 -18 -63 -66l-473 -1095q-7 -15 -23 -15t-23 15l-477 1100q-21 47 -63 67q-27 12 -59 12q-12 0 -25 -2q-41 -8 -72 -43q-33 -33 -33 -86v-1446z" />
<glyph unicode="n" horiz-adv-x="1320" d="M102 61q0 -22 16 -37.5t38 -15.5q23 0 39 15.5t16 37.5v1418q0 22 18 22q18 6 27 -12l713 -1405q23 -43 63 -62q26 -12 53 -12q16 0 33 4q46 10 73.5 46t27.5 83v1450q0 22 -15.5 38t-38.5 16q-22 0 -37.5 -16t-15.5 -38v-1450q0 -18 -18 -24q-19 -5 -29 12l-713 1407 q-22 42 -63 61q-27 12 -55 12q-15 0 -31 -3q-44 -10 -72.5 -46.5t-28.5 -82.5v-1418z" />
<glyph unicode="o" d="M102 557q0 -204 131 -360t326 -191q4 -2 10 -2q21 0 36 12.5t18 32.5q5 22 -8 40.5t-35 21.5q-163 32 -265 155q-106 125 -106 291v526q0 187 133 320t322 133t319 -133q65 -63 100 -146t35 -174v-526q0 -168 -108 -291q-98 -122 -262 -155q-23 -3 -35.5 -21.5 t-7.5 -40.5q3 -23 21 -35.5t40 -7.5q96 17 180.5 66.5t145.5 124.5q133 155 133 360v526q0 112 -43 215t-123 181q-78 79 -180.5 121t-216.5 42q-233 0 -396 -163q-79 -78 -121.5 -180.5t-42.5 -215.5v-526z" />
<glyph unicode="p" horiz-adv-x="1316" d="M102 53q0 -22 16 -37.5t38 -15.5q23 0 38 15.5t15 37.5v1444q0 13 10.5 24t24.5 11h547q132 0 224.5 -93.5t92.5 -224.5q0 -132 -92.5 -224.5t-224.5 -92.5h-447q-22 0 -37.5 -16t-15.5 -39q0 -22 15.5 -38t37.5 -16h447q176 0 301 125q122 122 122 301q0 177 -122 299 q-125 125 -301 125h-547q-59 0 -100.5 -41.5t-41.5 -99.5v-1444z" />
<glyph unicode="q" horiz-adv-x="1445" d="M102 567q0 -231 164 -395q78 -78 179.5 -120t213.5 -42q169 0 306 90q19 12 22.5 33.5t-8.5 40.5t-33.5 23.5t-40.5 -7.5q-115 -73 -246 -73q-186 0 -317 131q-133 133 -133 319v514q0 188 133 318q130 133 317 133q188 0 318 -133q131 -128 131 -318v-514 q0 -118 -53 -213q-16 -33 -16 -68q0 -10 1 -20q5 -41 39 -80l170 -170q19 -16 39 -16t39 16q15 15 15 37t-15 39l-172 170q-17 16 -6 41q68 121 68 264v514q0 113 -42.5 214.5t-121.5 179.5q-78 79 -179.5 121t-214.5 42q-233 0 -393 -163q-79 -78 -121.5 -179.5 t-42.5 -214.5v-514z" />
<glyph unicode="r" horiz-adv-x="1386" d="M102 59q0 -23 16 -38t38 -15q23 0 38 15t15 38v1444q0 13 10.5 23t24.5 10h547q132 0 224.5 -92.5t92.5 -224.5q0 -131 -92.5 -224.5t-224.5 -93.5h-377q-51 0 -87 -35t-36 -86t36 -87t87 -36h346q50 0 93.5 -26.5t68.5 -71.5l262 -522q9 -20 30 -27t41 2q20 10 27 32 t-4 42l-262 520q-35 72 -105 117q-71 41 -151 41h-346q-6 0 -10.5 5t-4.5 11t4.5 10.5t10.5 4.5h377q176 0 301 125q122 122 122 299q0 179 -122 301q-125 125 -301 125h-547q-58 0 -100 -41.5t-42 -100.5v-1444z" />
<glyph unicode="s" horiz-adv-x="1224" d="M104.5 296q-4.5 -22 6.5 -40q57 -87 135 -145q153 -111 379 -111q202 0 346 113q74 56 112 133q39 77 39 172q0 117 -53 200q-44 74 -127 136q-32 22 -75 42t-66 29t-80 29q-21 7 -94 35q-82 32 -92 35q-5 2 -15 5q-132 49 -180 84q-5 3 -10 7q-107 82 -107 207 q0 63 26.5 123t69.5 94q111 88 304 88q170 0 286 -84q48 -38 80 -82q12 -18 34 -21t40 9q17 12 20.5 34t-8.5 39q-48 65 -102 105q-141 106 -350 106q-231 0 -369 -110q-63 -51 -102 -137q-33 -73 -33 -164q0 -176 145 -291l22 -16t25 -15.5t23.5 -13t27 -13t25 -11t28 -12 t26 -10.5t29.5 -11.5t28 -10.5q44 -14 90 -32q19 -8 54 -21t44 -16q5 -2 15 -5q123 -43 171 -76q4 -3 7 -5q67 -49 100 -105q37 -63 37 -145q0 -70 -27 -125q-25 -52 -82 -96q-120 -91 -282 -91q-190 0 -316 91q-65 47 -108 114q-12 19 -33.5 24t-40.5 -7q-18 -10 -22.5 -32 z" />
<glyph unicode="t" horiz-adv-x="1318" d="M102 1585q0 -23 16 -38t38 -15h940q6 0 10 -5t4 -11q0 -15 -14 -15h-348q-59 0 -100.5 -41.5t-41.5 -99.5v-1307q0 -22 15.5 -37.5t37.5 -15.5q23 0 38.5 15.5t15.5 37.5v1307q0 14 10.5 24.5t24.5 10.5h348q51 0 86 35.5t35 85.5q0 51 -35 86.5t-86 35.5h-940 q-22 0 -38 -15.5t-16 -37.5z" />
<glyph unicode="u" horiz-adv-x="1318" d="M102 557q0 -111 42.5 -213t121.5 -180q78 -79 180 -121.5t213 -42.5q232 0 396 164q78 78 120 180.5t42 212.5v1028q0 22 -15.5 37.5t-38.5 15.5q-22 0 -37.5 -15.5t-15.5 -37.5v-1028q0 -89 -34 -171.5t-97 -145.5q-134 -134 -320 -134q-89 0 -171.5 35t-145.5 99 q-133 130 -133 317v1028q0 22 -15 37.5t-38 15.5q-22 0 -38 -15.5t-16 -37.5v-1028z" />
<glyph unicode="v" horiz-adv-x="1480" d="M104 1567l500 -1471q15 -44 51 -70t82 -26t83 26t52 70l502 1471q8 22 -1.5 42t-31.5 27q-22 6 -41 -3.5t-26 -30.5l-504 -1471q-7 -25 -33 -25q-22 0 -30 25l-502 1471q-7 21 -26.5 30.5t-41.5 3.5q-22 -7 -31.5 -27t-1.5 -42z" />
<glyph unicode="w" horiz-adv-x="2066" d="M104 1573l353 -1464q10 -49 48 -79t89 -30q50 0 87.5 30t49.5 79l268 1112q6 24 33 24q29 0 33 -24l268 -1112q12 -49 49.5 -79t87.5 -30t88 30t50 79l354 1464q5 22 -6.5 40.5t-32.5 22.5q-22 6 -41.5 -5.5t-23.5 -33.5l-355 -1464q-6 -27 -33 -27q-26 0 -32 27 l-269 1112q-11 48 -48.5 78.5t-88.5 30.5q-49 0 -87 -30.5t-50 -78.5l-268 -1112q-6 -27 -33 -27q-29 0 -33 27l-354 1464q-5 22 -23.5 33.5t-40.5 5.5q-22 -5 -33.5 -23t-5.5 -40z" />
<glyph unicode="x" horiz-adv-x="1390" d="M104.5 48q-4.5 22 6.5 40l954 1487q24 44 76 53q14 4 28 4q33 0 64 -20q42 -28 52 -76q3 -13 3 -26q0 -34 -20 -66l-453 -709q-10 -16 -10 -33t10 -34l365 -582q12 -19 7 -40t-24 -32q-11 -8 -26 -8q-29 0 -45 25l-367 579q-25 40 -25 88q0 52 27 93l453 710q6 13 -4 23 q-6 2 -13 2q-9 -4 -10 -8l-952 -1487q-12 -19 -33.5 -23t-40.5 8q-18 10 -22.5 32zM104.5 1602.5q4.5 21.5 22.5 33.5q19 12 40.5 7.5t33.5 -23.5l401 -627q11 -19 6.5 -40t-22.5 -31q-15 -9 -29 -9q-29 0 -45 25l-401 625q-11 18 -6.5 39.5z" />
<glyph unicode="y" horiz-adv-x="1353" d="M104.5 1596q4.5 22 22.5 34q19 12 40.5 7.5t33.5 -23.5l430 -668q12 -19 7 -40.5t-24 -33.5q-16 -8 -28 -8q-27 0 -45 25l-430 667q-11 18 -6.5 40zM596 53v574q0 86 43 153l516 805q11 19 32 24t40 -7t23.5 -33.5t-7.5 -40.5l-516 -805q-27 -43 -27 -96v-574 q0 -22 -15.5 -37.5t-37.5 -15.5t-36.5 15.5t-14.5 37.5z" />
<glyph unicode="z" horiz-adv-x="1318" d="M102 1585q0 -23 15.5 -38t38.5 -15h907q12 0 20.5 -7.5t10.5 -13.5q9 -19 -4 -34l-949 -1250q-24 -33 -28 -73q-1 -7 -1 -14q0 -32 15 -62q19 -35 53.5 -56.5t73.5 -21.5h907q23 0 39.5 15.5t16.5 37.5q0 23 -16 38t-40 15h-907q-17 0 -31 21q-10 19 4 35l949 1249 q25 33 29 73q1 7 1 13q0 33 -16 64q-19 36 -52.5 56.5t-74.5 20.5h-907q-23 0 -38.5 -15.5t-15.5 -37.5z" />
<glyph unicode="{" horiz-adv-x="573" d="M102 821q0 -254 74 -467q72 -212 199 -336l4 -4q14 -14 37 -14t39 16q15 15 15 38t-15 38l-4 4q-110 107 -172 293q-68 198 -68 432q0 233 65 428q62 187 170 295l5 2q15 15 15 38t-15 38q-17 17 -39 17t-39 -17l-2 -2q-124 -124 -197 -336q-72 -213 -72 -463z" />
<glyph unicode="|" horiz-adv-x="317" d="M102 -334q0 -23 16.5 -39t41.5 -16q23 0 39 16t16 39v1919q0 23 -16 39t-39 16q-25 0 -41.5 -16t-16.5 -39v-1919z" />
<glyph unicode="}" horiz-adv-x="571" d="M102.5 54q-0.5 -22 16.5 -38q16 -16 37 -16q25 0 39 14l2 4q123 117 200 336q72 216 72 467q0 250 -72 463q-73 212 -194 336l-4 2q-15 17 -38 17t-38 -17q-15 -15 -15 -38t15 -38l2 -2q107 -108 170 -295q67 -192 67 -428q0 -228 -67 -432q-67 -192 -174 -293l-2 -4 q-16 -16 -16.5 -38z" />
<glyph unicode="~" horiz-adv-x="946" d="M105 861.5q-8 -20.5 1 -42.5q9 -20 30.5 -27.5t41.5 1.5l2 2q56 24 105 24q45 0 88 -18q147 -64 250 -64q36 0 90 15q61 18 112 63q17 15 18 37t-14 39q-13 17 -35.5 18t-39.5 -14q-34 -30 -72 -41q-24 -8 -59 -8q-83 0 -207 53q-69 27 -131 27q-78 0 -148 -33 q-2 -2 -4 -2q-20 -9 -28 -29.5z" />
<glyph unicode="&#xa2;" horiz-adv-x="1105" d="M102 559v354q0 134 82 242q79 101 209 143q22 6 43 -4.5t27 -31.5q6 -23 -4.5 -43.5t-32.5 -28.5q-94 -28 -152 -105q-59 -74 -59 -172v-354q0 -95 59 -172q57 -75 152 -104q21 -6 32 -27t5 -43q-6 -19 -21 -30t-32 -11q-9 0 -17 4q-130 39 -209 143q-82 108 -82 240z M520 59v146v4v6q2 23 19.5 38.5t40.5 14.5h12h14q109 6 190.5 77t96.5 173q3 23 21.5 37t41.5 10q24 -3 38 -21.5t10 -41.5q-19 -147 -138 -246q-103 -86 -233 -98v-99q0 -23 -16 -39t-39 -16q-24 0 -41 16t-17 39zM520 1260v2v145q0 24 17 40.5t41 16.5q23 0 39 -16t16 -41 v-92q133 -12 233 -96q119 -99 138 -248q3 -23 -11 -42t-37 -22q-2 -2 -8 -2q-21 0 -36.5 14t-18.5 35q-16 107 -100 179q-83 71 -201 71h-10h-2q-24 0 -41.5 16t-18.5 40z" />
<glyph unicode="&#xa3;" horiz-adv-x="1232" d="M106 130q-8 -29 3 -58q9 -30 34 -48t58 -18h866q23 0 39 16t16 39q0 24 -16 41t-39 17h-825q64 55 120 147q64 103 87 199q7 25 8 50t-3.5 49.5t-10 44t-17 43.5t-18.5 37.5t-19 35.5h348q55 0 94 39.5t39 93.5q0 56 -39 94.5t-94 38.5h-452q-5 7 -13 22.5t-10 18.5 q-29 66 -29 139q0 152 113 256q114 105 287 105q138 0 238.5 -51.5t154.5 -151.5q10 -20 33 -26t43 6q21 10 27 32.5t-5 42.5q-72 129 -196 195q-129 66 -295 66q-104 0 -198 -34.5t-165 -99.5q-72 -64 -110.5 -152t-38.5 -188q0 -102 41 -186q14 -32 37 -65q30 -41 77 -41 h461q8 0 14.5 -6t6.5 -15q0 -7 -6.5 -13.5t-14.5 -6.5h-375q-56 0 -81 -45q-27 -47 -5 -97q10 -13 15 -26q10 -18 15.5 -28.5t14 -29.5t11.5 -29.5t8.5 -30t3 -30.5t-3.5 -30q-21 -80 -74.5 -168t-126.5 -146q-25 -19 -33 -48z" />
<glyph unicode="&#xa5;" horiz-adv-x="1370" d="M104 1595q-5 -23 7 -43l430 -663q17 -27 47 -27q13 0 30 10q19 12 24 35t-7 43l-428 664q-13 20 -36 25t-42 -9q-20 -12 -25 -35zM592 57q0 -23 16 -39t39 -16q25 0 41.5 16t16.5 39v244h235q56 0 94.5 38.5t38.5 94.5t-38.5 94.5t-94.5 38.5h-235v64q0 53 26 92l529 815 q12 20 7 43t-24 35q-20 13 -43 8t-35 -25l-528 -815q-45 -68 -45 -153v-80q0 -40 28 -68t68 -28h252q9 0 15 -6.5t6 -14.5q0 -20 -21 -20h-252q-40 0 -68 -28.5t-28 -68.5v-260z" />
<glyph unicode="&#xa8;" horiz-adv-x="1032" d="M102 1946q0 -89 74 -150q19 -14 42 -11t38 21q14 19 11 42t-21 36q-31 28 -31 62q0 31 22.5 53t53.5 22t53.5 -22t22.5 -53q0 -37 -31 -62q-19 -13 -21 -36t13 -42q16 -22 43 -22q20 0 35 12q73 57 73 150q0 78 -55 133t-133 55t-133.5 -55t-55.5 -133zM553 1946 q0 -89 74 -150q19 -14 42 -11t38 21q14 19 11 42t-22 36q-30 27 -30 62q0 31 22 53t53 22t53.5 -22t22.5 -53q0 -37 -31 -62q-19 -13 -21 -36t13 -42q16 -22 43 -22q20 0 35 12q74 58 74 150q0 78 -55.5 133t-133.5 55t-133 -55t-55 -133z" />
<glyph unicode="&#xa9;" horiz-adv-x="1843" d="M102 815q0 -153 55 -294.5t150.5 -249t229.5 -179.5t286 -90q23 -3 41 11.5t21 37.5t-11.5 42t-37.5 20q-174 21 -316.5 120.5t-223.5 252.5t-81 329q0 141 53.5 270.5t153.5 229.5t229.5 153.5t270.5 53.5t270 -53.5t229 -153.5t153.5 -229.5t53.5 -270.5 q0 -132 -47.5 -254.5t-136.5 -220.5q-88 -97 -204.5 -156t-246.5 -71q-23 -3 -37.5 -21t-11.5 -41q1 -23 17 -37t38 -14h7q151 15 286 83.5t236 180.5q103 114 158 256t55 295q0 161 -64 320q-68 152 -176 260q-110 110 -260 174q-154 65 -319 65q-166 0 -320 -65 q-150 -64 -260 -174q-108 -108 -176 -260q-64 -159 -64 -320zM602 682q0 -124 82.5 -216t202.5 -104l2 -2h35q125 0 211 80q90 75 106 197q3 23 -10.5 41.5t-36.5 21.5t-42 -11.5t-22 -37.5q-10 -73 -66 -124t-130 -54h-10q-87 0 -148 61t-61 148v270q0 85 57.5 145.5 t142.5 63.5h9q77 0 137 -51q56 -50 69 -129q3 -23 21.5 -36.5t42.5 -10.5q23 3 36.5 21.5t10.5 41.5q-15 116 -106 197q-83 74 -195 80h-16q-134 0 -228 -94t-94 -228v-270z" />
<glyph unicode="&#xad;" horiz-adv-x="931" d="M102 737q0 -23 16 -38t38 -15h618q23 0 39 15t16 38q0 22 -16 38t-39 16h-618q-22 0 -38 -16t-16 -38z" />
<glyph unicode="&#xaf;" horiz-adv-x="966" d="M102 1841q0 -25 16.5 -41t41.5 -16h649q23 0 39 16t16 41q0 23 -16 39t-39 16h-649q-25 0 -41.5 -16t-16.5 -39z" />
<glyph unicode="&#xb0;" horiz-adv-x="759" d="M102 1362q0 -63 29.5 -121.5t81.5 -99.5q17 -14 39 -11t35 21q14 17 11.5 39.5t-19.5 34.5q-70 57 -70 137q0 69 50.5 119.5t119.5 50.5q70 0 121 -50.5t51 -119.5q0 -79 -68 -137q-18 -12 -21 -34.5t11 -39.5q18 -21 43 -21q19 0 33 11q51 40 79.5 98t28.5 123 q0 114 -81.5 195t-196.5 81q-114 0 -195.5 -81t-81.5 -195z" />
<glyph unicode="&#xb1;" horiz-adv-x="1193" d="M102 639q0 -23 17 -40t41 -17h323q23 0 40.5 17t17.5 40v313q0 6 4 11.5t10 5.5t10 -5.5t4 -11.5v-682q0 -23 17 -39t41 -16q23 0 39 16t16 39v682q0 54 -37 91.5t-90 37.5t-90 -37.5t-37 -91.5v-258h-268q-25 0 -41.5 -16t-16.5 -39zM215 63q0 -23 17 -40t40 -17h650 q23 0 39 17t16 40t-16 39.5t-39 16.5h-650q-23 0 -40 -16.5t-17 -39.5zM735 637q0 -23 17.5 -40t40.5 -17h241q24 0 41 17t17 40t-16.5 39t-41.5 16h-241q-24 0 -41 -16t-17 -39z" />
<glyph unicode="&#xb4;" horiz-adv-x="542" d="M104 1827q5 -23 25 -35q13 -8 29 -8q33 0 49 26l225 363q12 20 7 43t-25 35t-43 6.5t-35 -25.5l-225 -362q-12 -20 -7 -43z" />
<glyph unicode="&#xb8;" horiz-adv-x="616" d="M102 -589q0 -23 17 -40q67 -67 164 -67q93 0 163 67q66 68 66.5 163t-66.5 163q-38 38 -94 57l31 51q12 20 5.5 42.5t-26.5 33.5q-20 12 -42.5 7t-32.5 -25l-76 -127q-20 -30 0 -60t55 -24q59 6 101 -33q34 -35 34 -84.5t-34 -83.5q-35 -35 -84.5 -35t-83.5 35 q-17 15 -40 15t-40 -15q-17 -17 -17 -40z" />
<glyph unicode="&#xc0;" horiz-adv-x="1480" d="M104 78q-8 -22 1.5 -42t31.5 -26q12 -4 17 -4q38 0 51 37l504 1473q7 22 30 22q26 0 33 -22l289 -840v-2l2 -2q6 -13 -2 -29q-10 -10 -21 -10h-393q-54 0 -91.5 -37.5t-37.5 -91.5t37.5 -91.5t91.5 -37.5h473q28 0 41 -27l113 -305q7 -22 27 -31.5t40 -1.5 q22 7 31.5 27.5t1.5 42.5l-112 307l-2 2q-17 43 -55.5 68.5t-84.5 25.5h-473q-20 0 -20 21q0 20 20 20h393q68 0 109 60q40 62 12 129l-287 837q-15 43 -52 69t-83 26t-82 -26t-51 -69zM450 2216q-5 -23 7 -43l225 -363q16 -26 49 -26q18 0 29 8q20 12 25 35t-7 43l-225 362 q-12 20 -35 25.5t-43 -6.5t-25 -35z" />
<glyph unicode="&#xc1;" horiz-adv-x="1480" d="M104 78q-8 -22 1.5 -42t31.5 -26q12 -4 17 -4q38 0 51 37l504 1473q7 22 30 22q26 0 33 -22l289 -840v-2l2 -2q6 -13 -2 -29q-10 -10 -21 -10h-393q-54 0 -91.5 -37.5t-37.5 -91.5t37.5 -91.5t91.5 -37.5h473q28 0 41 -27l113 -305q7 -22 27 -31.5t40 -1.5 q22 7 31.5 27.5t1.5 42.5l-112 307l-2 2q-17 43 -55.5 68.5t-84.5 25.5h-473q-20 0 -20 21q0 20 20 20h393q68 0 109 60q40 62 12 129l-287 837q-15 43 -52 69t-83 26t-82 -26t-51 -69zM675 1827q5 -23 25 -35q13 -8 29 -8q33 0 49 26l226 363q12 20 6.5 43t-25.5 35 t-43 6.5t-35 -25.5l-225 -362q-12 -20 -7 -43z" />
<glyph unicode="&#xc2;" horiz-adv-x="1480" d="M104 78q-8 -22 1.5 -42t31.5 -26q12 -4 17 -4q38 0 51 37l504 1473q7 22 30 22q26 0 33 -22l289 -840v-2l2 -2q6 -13 -2 -29q-10 -10 -21 -10h-393q-54 0 -91.5 -37.5t-37.5 -91.5t37.5 -91.5t91.5 -37.5h473q28 0 41 -27l113 -305q7 -22 27 -31.5t40 -1.5 q22 7 31.5 27.5t1.5 42.5l-112 307l-2 2q-17 43 -55.5 68.5t-84.5 25.5h-473q-20 0 -20 21q0 20 20 20h393q68 0 109 60q40 62 12 129l-287 837q-15 43 -52 69t-83 26t-82 -26t-51 -69zM412 1834.5q2 -23.5 20 -38.5q19 -14 43 -11.5t37 19.5l207 262q13 13 29 13 q15 0 28 -13l207 -262q17 -20 43 -20q20 0 35 12q18 15 21 38t-11 42l-207 260q-46 55 -116 55q-71 0 -117 -55l-207 -260q-14 -18 -12 -41.5z" />
<glyph unicode="&#xc3;" horiz-adv-x="1480" d="M104 78q-8 -22 1.5 -42t31.5 -26q12 -4 17 -4q38 0 51 37l504 1473q7 22 30 22q26 0 33 -22l289 -840v-2l2 -2q6 -13 -2 -29q-10 -10 -21 -10h-393q-54 0 -91.5 -37.5t-37.5 -91.5t37.5 -91.5t91.5 -37.5h473q28 0 41 -27l113 -305q7 -22 27 -31.5t40 -1.5 q22 7 31.5 27.5t1.5 42.5l-112 307l-2 2q-17 43 -55.5 68.5t-84.5 25.5h-473q-20 0 -20 21q0 20 20 20h393q68 0 109 60q40 62 12 129l-287 837q-15 43 -52 69t-83 26t-82 -26t-51 -69zM294 1913.5q-8 -21.5 1 -43.5q10 -22 32 -30t44 1l2 2q61 25 110 25q43 0 92 -19 q148 -65 261 -65q53 0 96 14q59 17 117 68q18 15 19.5 38t-13.5 40q-15 18 -39 19.5t-41 -13.5q-36 -33 -76 -45q-40 -9 -63 -9q-88 0 -215 56q-70 28 -138 28q-86 0 -155 -34q-2 0 -4 -2q-22 -9 -30 -30.5z" />
<glyph unicode="&#xc4;" horiz-adv-x="1480" d="M104 78q-8 -22 1.5 -42t31.5 -26q12 -4 17 -4q38 0 51 37l504 1473q7 22 30 22q26 0 33 -22l289 -840v-2l2 -2q6 -13 -2 -29q-10 -10 -21 -10h-393q-54 0 -91.5 -37.5t-37.5 -91.5t37.5 -91.5t91.5 -37.5h473q28 0 41 -27l113 -305q7 -22 27 -31.5t40 -1.5 q22 7 31.5 27.5t1.5 42.5l-112 307l-2 2q-17 43 -55.5 68.5t-84.5 25.5h-473q-20 0 -20 21q0 20 20 20h393q68 0 109 60q40 62 12 129l-287 837q-15 43 -52 69t-83 26t-82 -26t-51 -69zM322 1946q0 -90 73 -150q19 -14 42 -11t38 21q14 19 11 42t-21 36q-31 28 -31 62 q0 31 22.5 53t53.5 22t53.5 -22t22.5 -53q0 -37 -31 -62q-19 -13 -21 -36t13 -42q16 -22 43 -22q20 0 35 12q73 57 73 150q0 78 -55 133t-133 55t-133 -55t-55 -133zM772 1946q0 -89 74 -150q19 -14 42 -11t38 21q14 19 11 42t-22 36q-30 27 -30 62q0 31 22.5 53t53.5 22 t53 -22t22 -53q0 -38 -30 -62q-19 -13 -21.5 -36t12.5 -42q16 -22 43 -22q20 0 35 12q74 58 74 150q0 78 -55 133t-133 55t-133.5 -55t-55.5 -133z" />
<glyph unicode="&#xc5;" horiz-adv-x="1480" d="M104 78q-8 -22 1.5 -42t31.5 -26q12 -4 17 -4q38 0 51 37l504 1473q7 22 30 22q26 0 33 -22l289 -840v-2l2 -2q6 -13 -2 -29q-10 -10 -21 -10h-393q-54 0 -91.5 -37.5t-37.5 -91.5t37.5 -91.5t91.5 -37.5h473q28 0 41 -27l113 -305q7 -22 27 -31.5t40 -1.5 q22 7 31.5 27.5t1.5 42.5l-112 307l-2 2q-17 43 -55.5 68.5t-84.5 25.5h-473q-20 0 -20 21q0 20 20 20h393q68 0 109 60q40 62 12 129l-287 837q-15 43 -52 69t-83 26t-82 -26t-51 -69zM424 2028q0 -66 30.5 -127.5t84.5 -104.5q19 -14 41.5 -11t37.5 21q14 19 11 42t-21 36 q-71 58 -71 144q0 74 52.5 126t125.5 52q74 0 127 -52.5t53 -125.5q0 -88 -72 -144q-18 -13 -21 -36t11 -42q19 -22 45 -22q20 0 35 12q54 41 84.5 102.5t30.5 129.5q0 120 -86 205t-207 85q-120 0 -205.5 -85t-85.5 -205z" />
<glyph unicode="&#xc6;" horiz-adv-x="2562" d="M106 80q-8 -22 2 -43.5t33 -28.5q12 -4 19 -4q17 0 32 11t21 28l498 1458q7 21 28 21q22 0 29 -21l287 -831q0 -2 2 -4q5 -16 -4 -25q-5 -10 -17 -10h-389q-54 0 -92.5 -38.5t-38.5 -92.5t38.5 -91.5t92.5 -37.5h469q27 0 37 -27l86 -235q19 -46 60 -74.5t90 -28.5h2 q65 0 111 46t46 112v581q0 20 13.5 34t33.5 14h807q24 0 41 16t17 39q0 24 -17 40.5t-41 16.5h-807q-66 0 -112.5 -47t-46.5 -113v-581q0 -19 -13 -32t-32 -13h-2q-34 0 -43 28l-86 238l-3 2q-19 44 -57 70t-84 26h-469q-7 0 -12.5 5.5t-5.5 11.5q0 8 5.5 13t12.5 5h389 q70 0 111 60q41 59 14 131l-287 829q-15 44 -52 70t-83 26t-83 -26.5t-52 -69.5zM1436 1006q0 -23 17 -40.5t40 -17.5t39 17t16 41v493q0 13 10 23t23 10h821q24 0 41 16t17 39t-17.5 40.5t-40.5 17.5h-821q-60 0 -102.5 -43t-42.5 -103v-493zM1608 61q0 -23 16 -39t41 -16 h737q24 0 41 16t17 39t-17.5 40.5t-40.5 17.5h-737q-24 0 -40.5 -17t-16.5 -41z" />
<glyph unicode="&#xc7;" d="M102 565q0 -145 71 -271t193.5 -203t266.5 -85l6 -6h33q100 0 195 37t171 104t124.5 157t62.5 189q3 22 -10.5 39.5t-36.5 20.5q-22 3 -39.5 -10.5t-20.5 -36.5q-26 -166 -149 -277q-120 -105 -277 -114h-20q-187 0 -323 135t-136 321v516q0 182 130 313.5t312 137.5h17 q171 0 297 -111q125 -113 147 -276q3 -23 21.5 -36.5t40.5 -10.5t35 20.5t10 40.5q-13 98 -61.5 187t-123.5 155q-146 131 -350 137h-16q-113 0 -218 -41.5t-184 -119.5q-80 -81 -124 -183t-44 -213v-516zM456 -589q0 -23 17 -40q67 -67 164 -67q94 0 164 67q66 68 66.5 163 t-66.5 163q-38 38 -94 57l30 51q12 20 6 43t-26 33q-20 12 -43 7t-33 -25l-76 -127q-20 -30 0 -60t56 -24q58 6 100 -33q34 -35 34 -84.5t-34 -83.5q-35 -35 -84.5 -35t-83.5 35q-17 15 -40 15t-40 -15q-17 -17 -17 -40z" />
<glyph unicode="&#xc8;" horiz-adv-x="1224" d="M102 143v613q0 59 42 101t100 42h825q22 0 37.5 -16t15.5 -39t-15.5 -39.5t-37.5 -16.5h-825q-14 0 -24.5 -9.5t-10.5 -22.5v-613q0 -15 10.5 -24.5t24.5 -9.5h825q22 0 37.5 -16t15.5 -38q0 -23 -15.5 -39t-37.5 -16h-825q-59 0 -100.5 41.5t-41.5 101.5zM102 1001v494 q0 60 41.5 101.5t100.5 41.5h825q22 0 37.5 -15.5t15.5 -37.5q0 -23 -15.5 -39t-37.5 -16h-825q-14 0 -24.5 -10t-10.5 -25v-494q0 -23 -15 -39t-38 -16t-38.5 16t-15.5 39zM331 2216q-5 -23 7 -43l225 -363q16 -26 49 -26q18 0 29 8q20 12 25 35t-7 43l-225 362 q-12 20 -35 25.5t-43 -6.5t-25 -35z" />
<glyph unicode="&#xc9;" horiz-adv-x="1224" d="M102 143v613q0 59 42 101t100 42h825q22 0 37.5 -16t15.5 -39t-15.5 -39.5t-37.5 -16.5h-825q-14 0 -24.5 -9.5t-10.5 -22.5v-613q0 -15 10.5 -24.5t24.5 -9.5h825q22 0 37.5 -16t15.5 -38q0 -23 -15.5 -39t-37.5 -16h-825q-59 0 -100.5 41.5t-41.5 101.5zM102 1001v494 q0 60 41.5 101.5t100.5 41.5h825q22 0 37.5 -15.5t15.5 -37.5q0 -23 -15.5 -39t-37.5 -16h-825q-14 0 -24.5 -10t-10.5 -25v-494q0 -23 -15 -39t-38 -16t-38.5 16t-15.5 39zM513.5 1827q5.5 -23 25.5 -35q13 -8 28 -8q33 0 49 26l226 363q12 20 6.5 43t-25.5 35t-43 6.5 t-35 -25.5l-225 -362q-12 -20 -6.5 -43z" />
<glyph unicode="&#xca;" horiz-adv-x="1224" d="M102 143v613q0 59 42 101t100 42h825q22 0 37.5 -16t15.5 -39t-15.5 -39.5t-37.5 -16.5h-825q-14 0 -24.5 -9.5t-10.5 -22.5v-613q0 -15 10.5 -24.5t24.5 -9.5h825q22 0 37.5 -16t15.5 -38q0 -23 -15.5 -39t-37.5 -16h-825q-59 0 -100.5 41.5t-41.5 101.5zM102 1001v494 q0 60 41.5 101.5t100.5 41.5h825q22 0 37.5 -15.5t15.5 -37.5q0 -23 -15.5 -39t-37.5 -16h-825q-14 0 -24.5 -10t-10.5 -25v-494q0 -23 -15 -39t-38 -16t-38.5 16t-15.5 39zM252 1834.5q2 -23.5 20 -38.5q19 -14 43 -11.5t37 19.5l207 262q13 13 29 13q15 0 28 -13l207 -262 q17 -20 43 -20q20 0 35 12q18 15 21 38t-11 42l-206 260q-46 55 -117 55t-117 -55l-207 -260q-14 -18 -12 -41.5z" />
<glyph unicode="&#xcb;" horiz-adv-x="1224" d="M102 143v613q0 59 42 101t100 42h825q22 0 37.5 -16t15.5 -39t-15.5 -39.5t-37.5 -16.5h-825q-14 0 -24.5 -9.5t-10.5 -22.5v-613q0 -15 10.5 -24.5t24.5 -9.5h825q22 0 37.5 -16t15.5 -38q0 -23 -15.5 -39t-37.5 -16h-825q-59 0 -100.5 41.5t-41.5 101.5zM102 1001v494 q0 60 41.5 101.5t100.5 41.5h825q22 0 37.5 -15.5t15.5 -37.5q0 -23 -15.5 -39t-37.5 -16h-825q-14 0 -24.5 -10t-10.5 -25v-494q0 -23 -15 -39t-38 -16t-38.5 16t-15.5 39zM102 1946q0 -89 74 -150q19 -14 42 -11t38 21q14 19 11 42t-21 36q-31 28 -31 62q0 31 22.5 53 t53.5 22t53.5 -22t22.5 -53q0 -37 -31 -62q-19 -13 -21 -36t13 -42q16 -22 43 -22q20 0 35 12q73 57 73 150q0 78 -55 133t-133 55t-133.5 -55t-55.5 -133zM553 1946q0 -89 74 -150q19 -14 42 -11t38 21q14 19 11 42t-22 36q-30 27 -30 62q0 31 22 53t53 22t53.5 -22 t22.5 -53q0 -37 -31 -62q-19 -13 -21 -36t13 -42q16 -22 43 -22q20 0 35 12q74 58 74 150q0 78 -55.5 133t-133.5 55t-133 -55t-55 -133z" />
<glyph unicode="&#xcc;" horiz-adv-x="311" d="M-142 2216q-5 -23 7 -43l225 -363q16 -26 49 -26q18 0 29 8q20 12 25 35t-7 43l-225 362q-12 20 -35 25.5t-43 -6.5t-25 -35zM102 53q0 -22 15.5 -37.5t38.5 -15.5q22 0 37.5 15.5t15.5 37.5v1532q0 22 -15.5 37.5t-37.5 15.5q-23 0 -38.5 -15.5t-15.5 -37.5v-1532z" />
<glyph unicode="&#xcd;" horiz-adv-x="311" d="M102 53q0 -22 15.5 -37.5t38.5 -15.5q22 0 37.5 15.5t15.5 37.5v1532q0 22 -15.5 37.5t-37.5 15.5q-23 0 -38.5 -15.5t-15.5 -37.5v-1532zM104 1827q5 -23 25 -35q13 -8 29 -8q33 0 49 26l225 363q12 20 7 43t-25 35t-43 6.5t-35 -25.5l-225 -362q-12 -20 -7 -43z" />
<glyph unicode="&#xce;" horiz-adv-x="311" d="M-176 1834.5q2 -23.5 20 -38.5q19 -14 43 -11.5t37 19.5l207 262q13 13 29 13q15 0 28 -13l207 -262q17 -20 43 -20q20 0 35 12q18 15 21 38t-11 42l-207 260q-46 55 -116 55q-71 0 -117 -55l-207 -260q-14 -18 -12 -41.5zM102 53q0 -22 15.5 -37.5t38.5 -15.5 q22 0 37.5 15.5t15.5 37.5v1532q0 22 -15.5 37.5t-37.5 15.5q-23 0 -38.5 -15.5t-15.5 -37.5v-1532z" />
<glyph unicode="&#xcf;" horiz-adv-x="311" d="M-250 1946q0 -89 74 -150q19 -14 42 -11t38 21q14 19 11 42t-21 36q-31 28 -31 62q0 31 22.5 53t53.5 22t53 -22t22 -53q0 -38 -30 -62q-19 -13 -21.5 -36t12.5 -42q16 -22 43 -22q20 0 35 12q74 58 74 150q0 78 -55 133t-133 55t-133.5 -55t-55.5 -133zM102 53 q0 -22 15.5 -37.5t38.5 -15.5q22 0 37.5 15.5t15.5 37.5v1532q0 22 -15.5 37.5t-37.5 15.5q-23 0 -38.5 -15.5t-15.5 -37.5v-1532zM201 1946q0 -90 73 -150q19 -14 42 -11t38 21q14 19 11 42t-21 36q-31 28 -31 62q0 31 22.5 53t53.5 22t53.5 -22t22.5 -53q0 -37 -31 -62 q-19 -13 -21 -36t13 -42q16 -22 43 -22q20 0 35 12q74 58 74 150q0 78 -55.5 133t-133.5 55t-133 -55t-55 -133z" />
<glyph unicode="&#xd0;" horiz-adv-x="1325" d="M102 182q0 -23 16 -39t38 -16q23 0 39 16t16 39v1315q0 13 9.5 23t23.5 10h434q182 0 309 -127t127 -309v-549q0 -182 -127 -309t-309 -127h-393q-23 0 -39.5 -16.5t-16.5 -39.5q0 -22 16.5 -37.5t39.5 -15.5h393q108 0 208 41.5t177 118.5t118.5 177t41.5 208v549 q0 108 -41.5 208t-118.5 177t-176.5 118t-208.5 41h-434q-59 0 -100.5 -41.5t-41.5 -99.5v-1315zM285 856q0 -24 16.5 -40.5t40.5 -16.5h649q23 0 39.5 17t16.5 40t-16.5 39t-39.5 16h-649q-25 0 -41 -16t-16 -39z" />
<glyph unicode="&#xd1;" horiz-adv-x="1320" d="M102 61q0 -22 16 -37.5t38 -15.5q23 0 39 15.5t16 37.5v1418q0 22 18 22q18 6 27 -12l713 -1405q22 -43 62.5 -62t86.5 -8q46 10 73.5 46t27.5 83v1450q0 22 -15.5 38t-38.5 16q-22 0 -37.5 -16t-15.5 -38v-1450q0 -18 -18 -24q-19 -5 -29 12l-713 1407q-22 42 -63 61 t-86 9q-44 -10 -72.5 -46.5t-28.5 -82.5v-1418zM241 1913.5q-8 -21.5 1 -43.5q10 -22 31.5 -30t43.5 1l2 2q61 25 111 25q43 0 92 -19q148 -65 260 -65q54 0 97 14q58 16 116 68q18 15 19.5 38t-13.5 40q-15 18 -38.5 19.5t-40.5 -13.5q-36 -33 -76 -45q-40 -9 -64 -9 q-88 0 -215 56q-70 28 -137 28q-87 0 -156 -34q-2 0 -4 -2q-21 -9 -29 -30.5z" />
<glyph unicode="&#xd2;" d="M102 557q0 -204 131 -360t326 -191q4 -2 10 -2q21 0 36 12.5t18 32.5q5 22 -8 40.5t-35 21.5q-163 32 -265 155q-106 125 -106 291v526q0 187 133 320t322 133t319 -133q65 -63 100 -146t35 -174v-526q0 -168 -108 -291q-98 -122 -262 -155q-23 -3 -35.5 -21.5 t-7.5 -40.5q3 -23 21 -35.5t40 -7.5q96 17 180.5 66.5t145.5 124.5q133 155 133 360v526q0 112 -43 215t-123 181q-78 79 -180.5 121t-216.5 42q-233 0 -396 -163q-79 -78 -121.5 -180.5t-42.5 -215.5v-526zM396.5 2216q-5.5 -23 6.5 -43l226 -363q16 -26 49 -26q18 0 29 8 q20 12 25 35t-7 43l-225 362q-12 20 -35 25.5t-43 -6.5t-25.5 -35z" />
<glyph unicode="&#xd3;" d="M102 557q0 -204 131 -360t326 -191q4 -2 10 -2q21 0 36 12.5t18 32.5q5 22 -8 40.5t-35 21.5q-163 32 -265 155q-106 125 -106 291v526q0 187 133 320t322 133t319 -133q65 -63 100 -146t35 -174v-526q0 -168 -108 -291q-98 -122 -262 -155q-23 -3 -35.5 -21.5 t-7.5 -40.5q3 -23 21 -35.5t40 -7.5q96 17 180.5 66.5t145.5 124.5q133 155 133 360v526q0 112 -43 215t-123 181q-78 79 -180.5 121t-216.5 42q-233 0 -396 -163q-79 -78 -121.5 -180.5t-42.5 -215.5v-526zM605.5 1827q5.5 -23 25.5 -35q13 -8 28 -8q34 0 50 26l225 363 q12 20 6.5 43t-25.5 35t-42.5 6.5t-34.5 -25.5l-226 -362q-12 -20 -6.5 -43z" />
<glyph unicode="&#xd4;" d="M102 557q0 -204 131 -360t326 -191q4 -2 10 -2q21 0 36 12.5t18 32.5q5 22 -8 40.5t-35 21.5q-163 32 -265 155q-106 125 -106 291v526q0 187 133 320t322 133t319 -133q65 -63 100 -146t35 -174v-526q0 -168 -108 -291q-98 -122 -262 -155q-23 -3 -35.5 -21.5 t-7.5 -40.5q3 -23 21 -35.5t40 -7.5q96 17 180.5 66.5t145.5 124.5q133 155 133 360v526q0 112 -43 215t-123 181q-78 79 -180.5 121t-216.5 42q-233 0 -396 -163q-79 -78 -121.5 -180.5t-42.5 -215.5v-526zM103 1834.5q2 -23.5 20 -38.5q19 -14 43 -11.5t37 19.5l207 262 q13 13 28 13q16 0 29 -13l207 -262q17 -20 43 -20q20 0 35 12q18 15 21 38t-11 42l-207 260q-46 55 -117 55q-70 0 -116 -55l-207 -260q-14 -18 -12 -41.5z" />
<glyph unicode="&#xd5;" d="M102 557q0 -204 131 -360t326 -191q4 -2 10 -2q21 0 36 12.5t18 32.5q5 22 -8 40.5t-35 21.5q-163 32 -265 155q-106 125 -106 291v526q0 187 133 320t322 133t319 -133q65 -63 100 -146t35 -174v-526q0 -168 -108 -291q-98 -122 -262 -155q-23 -3 -35.5 -21.5 t-7.5 -40.5q3 -23 21 -35.5t40 -7.5q96 17 180.5 66.5t145.5 124.5q133 155 133 360v526q0 112 -43 215t-123 181q-78 79 -180.5 121t-216.5 42q-233 0 -396 -163q-79 -78 -121.5 -180.5t-42.5 -215.5v-526zM259 1913.5q-8 -21.5 1 -43.5q10 -22 32 -30t44 1l2 2 q61 25 111 25q43 0 92 -19q148 -65 260 -65q53 0 96 14q59 17 117 68q18 15 19.5 38t-13.5 40q-15 18 -39 19.5t-41 -13.5q-36 -33 -76 -45q-40 -9 -63 -9q-88 0 -215 56q-70 28 -137 28q-87 0 -156 -34q-2 0 -4 -2q-22 -9 -30 -30.5z" />
<glyph unicode="&#xd6;" d="M102 557q0 -204 131 -360t326 -191q4 -2 10 -2q21 0 36 12.5t18 32.5q5 22 -8 40.5t-35 21.5q-163 32 -265 155q-106 125 -106 291v526q0 187 133 320t322 133t319 -133q65 -63 100 -146t35 -174v-526q0 -168 -108 -291q-98 -122 -262 -155q-23 -3 -35.5 -21.5 t-7.5 -40.5q3 -23 21 -35.5t40 -7.5q96 17 180.5 66.5t145.5 124.5q133 155 133 360v526q0 112 -43 215t-123 181q-78 79 -180.5 121t-216.5 42q-233 0 -396 -163q-79 -78 -121.5 -180.5t-42.5 -215.5v-526zM231 1946q0 -89 74 -150q19 -14 42 -11t38 21q14 19 11 42t-21 36 q-31 28 -31 62q0 31 22.5 53t53.5 22t53.5 -22t22.5 -53q0 -37 -31 -62q-19 -13 -21 -36t13 -42q16 -22 43 -22q20 0 35 12q73 57 73 150q0 78 -55 133t-133 55t-133.5 -55t-55.5 -133zM682 1946q0 -89 74 -150q19 -14 42 -11t38 21q14 19 11 42t-22 36q-30 27 -30 62 q0 31 22 53t53 22t53.5 -22t22.5 -53q0 -37 -31 -62q-19 -13 -21 -36t13 -42q16 -22 43 -22q20 0 35 12q74 58 74 150q0 78 -55.5 133t-133.5 55t-133 -55t-55 -133z" />
<glyph unicode="&#xd8;" d="M102 557q0 -204 131 -360t326 -191q4 -2 10 -2q21 0 36 12.5t18 32.5q5 22 -8 40.5t-35 21.5q-163 32 -265 155q-106 125 -106 291v526q0 187 133 320t322 133t319 -133q65 -63 100 -146t35 -174v-526q0 -168 -108 -291q-98 -122 -262 -155q-23 -3 -35.5 -21.5 t-7.5 -40.5q3 -23 21 -35.5t40 -7.5q96 17 180.5 66.5t145.5 124.5q133 155 133 360v526q0 112 -43 215t-123 181q-78 79 -180.5 121t-216.5 42q-233 0 -396 -163q-79 -78 -121.5 -180.5t-42.5 -215.5v-526zM103 3.5q4 -22.5 24 -34.5q10 -10 31 -10q29 0 45 23l1122 1605 q14 19 10 41.5t-24 34.5q-19 14 -42 10.5t-36 -22.5l-1120 -1606q-14 -19 -10 -41.5z" />
<glyph unicode="&#xd9;" horiz-adv-x="1318" d="M102 557q0 -111 42.5 -213t121.5 -180q78 -79 180 -121.5t213 -42.5q232 0 396 164q78 78 120 180.5t42 212.5v1028q0 22 -15.5 37.5t-38.5 15.5q-22 0 -37.5 -15.5t-15.5 -37.5v-1028q0 -89 -34 -171.5t-97 -145.5q-134 -134 -320 -134q-89 0 -171.5 35t-145.5 99 q-133 130 -133 317v1028q0 22 -15 37.5t-38 15.5q-22 0 -38 -15.5t-16 -37.5v-1028zM364 2216q-5 -23 7 -43l225 -363q16 -26 49 -26q18 0 29 8q20 12 25 35t-7 43l-225 362q-12 20 -35 25.5t-43 -6.5t-25 -35z" />
<glyph unicode="&#xda;" horiz-adv-x="1318" d="M102 557q0 -111 42.5 -213t121.5 -180q78 -79 180 -121.5t213 -42.5q232 0 396 164q78 78 120 180.5t42 212.5v1028q0 22 -15.5 37.5t-38.5 15.5q-22 0 -37.5 -15.5t-15.5 -37.5v-1028q0 -89 -34 -171.5t-97 -145.5q-134 -134 -320 -134q-89 0 -171.5 35t-145.5 99 q-133 130 -133 317v1028q0 22 -15 37.5t-38 15.5q-22 0 -38 -15.5t-16 -37.5v-1028zM603.5 1827q5.5 -23 25.5 -35q13 -8 28 -8q34 0 50 26l225 363q12 20 6.5 43t-25.5 35t-42.5 6.5t-34.5 -25.5l-226 -362q-12 -20 -6.5 -43z" />
<glyph unicode="&#xdb;" horiz-adv-x="1318" d="M102 557q0 -111 42.5 -213t121.5 -180q78 -79 180 -121.5t213 -42.5q232 0 396 164q78 78 120 180.5t42 212.5v1028q0 22 -15.5 37.5t-38.5 15.5q-22 0 -37.5 -15.5t-15.5 -37.5v-1028q0 -89 -34 -171.5t-97 -145.5q-134 -134 -320 -134q-89 0 -171.5 35t-145.5 99 q-133 130 -133 317v1028q0 22 -15 37.5t-38 15.5q-22 0 -38 -15.5t-16 -37.5v-1028zM322 1834.5q2 -23.5 20 -38.5q19 -14 43 -11.5t37 19.5l207 262q13 13 28 13q16 0 29 -13l207 -262q17 -20 43 -20q20 0 35 12q18 15 21 38t-11 42l-207 260q-46 55 -117 55 q-70 0 -116 -55l-207 -260q-14 -18 -12 -41.5z" />
<glyph unicode="&#xdc;" horiz-adv-x="1318" d="M102 557q0 -111 42.5 -213t121.5 -180q78 -79 180 -121.5t213 -42.5q232 0 396 164q78 78 120 180.5t42 212.5v1028q0 22 -15.5 37.5t-38.5 15.5q-22 0 -37.5 -15.5t-15.5 -37.5v-1028q0 -89 -34 -171.5t-97 -145.5q-134 -134 -320 -134q-89 0 -171.5 35t-145.5 99 q-133 130 -133 317v1028q0 22 -15 37.5t-38 15.5q-22 0 -38 -15.5t-16 -37.5v-1028zM199 1946q0 -90 73 -150q19 -14 42 -11t38 21q14 19 11 42t-21 36q-31 28 -31 62q0 31 22.5 53t53.5 22t53.5 -22t22.5 -53q0 -37 -31 -62q-19 -13 -21 -36t13 -42q16 -22 43 -22 q20 0 35 12q73 57 73 150q0 78 -55 133t-133 55t-133 -55t-55 -133zM649 1946q0 -89 74 -150q19 -14 42 -11t38 21q14 19 11 42t-21 36q-31 28 -31 62q0 31 22.5 53t53.5 22t53 -22t22 -53q0 -38 -30 -62q-19 -13 -21.5 -36t12.5 -42q16 -22 44 -22q19 0 34 12q74 58 74 150 q0 78 -55 133t-133 55t-133.5 -55t-55.5 -133z" />
<glyph unicode="&#xdd;" horiz-adv-x="1353" d="M104.5 1596q4.5 22 22.5 34q19 12 40.5 7.5t33.5 -23.5l430 -668q12 -19 7 -40.5t-24 -33.5q-16 -8 -28 -8q-27 0 -45 25l-430 667q-11 18 -6.5 40zM596 53v574q0 86 43 153l516 805q11 19 32 24t40 -7t23.5 -33.5t-7.5 -40.5l-516 -805q-27 -43 -27 -96v-574 q0 -22 -15.5 -37.5t-37.5 -15.5t-36.5 15.5t-14.5 37.5zM630 1827q5 -23 25 -35q13 -8 29 -8q33 0 49 26l225 363q12 20 7 43t-25 35t-43 6.5t-35 -25.5l-225 -362q-12 -20 -7 -43z" />
<glyph unicode="&#xde;" horiz-adv-x="1130" d="M102 61q0 -23 16.5 -39t41.5 -16q23 0 39 16t16 39v1280q0 24 -16 41t-39 17q-24 0 -41 -17t-17 -41v-1280zM311 410q0 -23 16.5 -39.5t41.5 -16.5h262q164 0 280.5 117t116.5 281q0 163 -116.5 279t-280.5 116h-262q-25 0 -41.5 -16t-16.5 -39q0 -25 16.5 -41.5 t41.5 -16.5h262q118 0 201 -82.5t83 -199.5q0 -119 -83 -202t-201 -83h-262q-25 0 -41.5 -16t-16.5 -41z" />
<glyph unicode="&#xdf;" horiz-adv-x="1212" d="M102 55q0 -23 16.5 -39t41.5 -16q23 0 39 16t16 39v1139q0 136 97.5 234t234.5 98h8q129 0 221 -91.5t92 -220.5t-92 -221t-221 -92q-23 0 -39 -16t-16 -39q0 -24 16 -41t39 -17h104q140 0 239 -99t99 -238t-99.5 -238.5t-238.5 -99.5h-104q-23 0 -39 -16.5t-16 -41.5 q0 -23 16 -39t39 -16h104q187 0 318 131q133 133 133 320q0 186 -133 319q-66 66 -166 104q78 60 124 149t46 191q0 175 -124.5 299.5t-301.5 124.5h-8q-183 0 -314 -131t-131 -313v-1139z" />
<glyph unicode="&#xe0;" horiz-adv-x="1480" d="M104 78q-8 -22 1.5 -42t31.5 -26q12 -4 17 -4q38 0 51 37l504 1473q7 22 30 22q26 0 33 -22l289 -840v-2l2 -2q6 -13 -2 -29q-10 -10 -21 -10h-393q-54 0 -91.5 -37.5t-37.5 -91.5t37.5 -91.5t91.5 -37.5h473q28 0 41 -27l113 -305q7 -22 27 -31.5t40 -1.5 q22 7 31.5 27.5t1.5 42.5l-112 307l-2 2q-17 43 -55.5 68.5t-84.5 25.5h-473q-20 0 -20 21q0 20 20 20h393q68 0 109 60q40 62 12 129l-287 837q-15 43 -52 69t-83 26t-82 -26t-51 -69zM446 2216q-5 -23 7 -43l225 -363q16 -26 49 -26q18 0 29 8q20 12 25 35t-7 43l-225 362 q-12 20 -35 25.5t-43 -6.5t-25 -35z" />
<glyph unicode="&#xe1;" horiz-adv-x="1480" d="M104 78q-8 -22 1.5 -42t31.5 -26q12 -4 17 -4q38 0 51 37l504 1473q7 22 30 22q26 0 33 -22l289 -840v-2l2 -2q6 -13 -2 -29q-10 -10 -21 -10h-393q-54 0 -91.5 -37.5t-37.5 -91.5t37.5 -91.5t91.5 -37.5h473q28 0 41 -27l113 -305q7 -22 27 -31.5t40 -1.5 q22 7 31.5 27.5t1.5 42.5l-112 307l-2 2q-17 43 -55.5 68.5t-84.5 25.5h-473q-20 0 -20 21q0 20 20 20h393q68 0 109 60q40 62 12 129l-287 837q-15 43 -52 69t-83 26t-82 -26t-51 -69zM665 1827q5 -23 25 -35q13 -8 29 -8q33 0 49 26l225 363q12 20 7 43t-25 35t-43 6.5 t-35 -25.5l-225 -362q-12 -20 -7 -43z" />
<glyph unicode="&#xe2;" horiz-adv-x="1480" d="M104 78q-8 -22 1.5 -42t31.5 -26q12 -4 17 -4q38 0 51 37l504 1473q7 22 30 22q26 0 33 -22l289 -840v-2l2 -2q6 -13 -2 -29q-10 -10 -21 -10h-393q-54 0 -91.5 -37.5t-37.5 -91.5t37.5 -91.5t91.5 -37.5h473q28 0 41 -27l113 -305q7 -22 27 -31.5t40 -1.5 q22 7 31.5 27.5t1.5 42.5l-112 307l-2 2q-17 43 -55.5 68.5t-84.5 25.5h-473q-20 0 -20 21q0 20 20 20h393q68 0 109 60q40 62 12 129l-287 837q-15 43 -52 69t-83 26t-82 -26t-51 -69zM394 1834.5q2 -23.5 20 -38.5q19 -14 43 -11.5t37 19.5l206 262q13 13 29 13t29 -13 l207 -262q17 -20 43 -20q19 0 34 12q19 15 22 38t-11 42l-207 260q-46 55 -117 55t-117 -55l-206 -260q-14 -18 -12 -41.5z" />
<glyph unicode="&#xe3;" horiz-adv-x="1480" d="M104 78q-8 -22 1.5 -42t31.5 -26q12 -4 17 -4q38 0 51 37l504 1473q7 22 30 22q26 0 33 -22l289 -840v-2l2 -2q6 -13 -2 -29q-10 -10 -21 -10h-393q-54 0 -91.5 -37.5t-37.5 -91.5t37.5 -91.5t91.5 -37.5h473q28 0 41 -27l113 -305q7 -22 27 -31.5t40 -1.5 q22 7 31.5 27.5t1.5 42.5l-112 307l-2 2q-17 43 -55.5 68.5t-84.5 25.5h-473q-20 0 -20 21q0 20 20 20h393q68 0 109 60q40 62 12 129l-287 837q-15 43 -52 69t-83 26t-82 -26t-51 -69zM357 1913.5q-8 -21.5 1 -43.5q10 -22 32 -30t44 1l2 2q61 25 111 25q43 0 92 -19 q148 -65 260 -65q53 0 96 14q59 17 117 68q18 15 19.5 38t-13.5 40q-15 18 -39 19.5t-41 -13.5q-37 -34 -75 -45q-41 -9 -64 -9q-88 0 -215 56q-70 28 -137 28q-87 0 -156 -34q-2 0 -4 -2q-22 -9 -30 -30.5z" />
<glyph unicode="&#xe4;" horiz-adv-x="1480" d="M104 78q-8 -22 1.5 -42t31.5 -26q12 -4 17 -4q38 0 51 37l504 1473q7 22 30 22q26 0 33 -22l289 -840v-2l2 -2q6 -13 -2 -29q-10 -10 -21 -10h-393q-54 0 -91.5 -37.5t-37.5 -91.5t37.5 -91.5t91.5 -37.5h473q28 0 41 -27l113 -305q7 -22 27 -31.5t40 -1.5 q22 7 31.5 27.5t1.5 42.5l-112 307l-2 2q-17 43 -55.5 68.5t-84.5 25.5h-473q-20 0 -20 21q0 20 20 20h393q68 0 109 60q40 62 12 129l-287 837q-15 43 -52 69t-83 26t-82 -26t-51 -69zM340 1946q0 -89 74 -150q19 -14 42 -11t38 21q14 19 11 42t-22 36q-30 27 -30 62 q0 31 22 53t53 22t53.5 -22t22.5 -53q0 -37 -31 -62q-19 -13 -21 -36t13 -42q16 -22 43 -22q20 0 35 12q74 58 74 150q0 78 -55.5 133t-133.5 55t-133 -55t-55 -133zM791 1946q0 -90 73 -150q19 -14 42 -11t38 21q14 19 11 42t-21 36q-31 28 -31 62q0 31 22.5 53t53.5 22 t53.5 -22t22.5 -53q0 -37 -31 -62q-19 -13 -21 -36t13 -42q16 -22 43 -22q20 0 35 12q73 57 73 150q0 78 -55 133t-133 55t-133 -55t-55 -133z" />
<glyph unicode="&#xe5;" horiz-adv-x="1480" d="M104 78q-8 -22 1.5 -42t31.5 -26q12 -4 17 -4q38 0 51 37l504 1473q7 22 30 22q26 0 33 -22l289 -840v-2l2 -2q6 -13 -2 -29q-10 -10 -21 -10h-393q-54 0 -91.5 -37.5t-37.5 -91.5t37.5 -91.5t91.5 -37.5h473q28 0 41 -27l113 -305q7 -22 27 -31.5t40 -1.5 q22 7 31.5 27.5t1.5 42.5l-112 307l-2 2q-17 43 -55.5 68.5t-84.5 25.5h-473q-20 0 -20 21q0 20 20 20h393q68 0 109 60q40 62 12 129l-287 837q-15 43 -52 69t-83 26t-82 -26t-51 -69zM434 2028q0 -66 30.5 -127.5t84.5 -104.5q19 -14 42 -11t38 21q14 19 11 42t-22 36 q-71 58 -71 144q0 74 52.5 126t125.5 52q74 0 127 -52.5t53 -125.5q0 -89 -71 -144q-19 -13 -22 -36t11 -42q19 -22 45 -22q20 0 35 12q54 41 84.5 102.5t30.5 129.5q0 120 -86 205t-207 85q-120 0 -205.5 -85t-85.5 -205z" />
<glyph unicode="&#xe6;" horiz-adv-x="2562" d="M106 80q-8 -22 2 -43.5t33 -28.5q12 -4 19 -4q17 0 32 11t21 28l498 1458q7 21 28 21q22 0 29 -21l287 -831q0 -2 2 -4q5 -16 -4 -25q-5 -10 -17 -10h-389q-54 0 -92.5 -38.5t-38.5 -92.5t38.5 -91.5t92.5 -37.5h469q27 0 37 -27l86 -235q19 -46 60 -74.5t90 -28.5h2 q65 0 111 46t46 112v581q0 20 13.5 34t33.5 14h807q24 0 41 16t17 39q0 24 -17 40.5t-41 16.5h-807q-66 0 -112.5 -47t-46.5 -113v-581q0 -19 -13 -32t-32 -13h-2q-34 0 -43 28l-86 238l-3 2q-19 44 -57 70t-84 26h-469q-7 0 -12.5 5.5t-5.5 11.5q0 8 5.5 13t12.5 5h389 q70 0 111 60q41 59 14 131l-287 829q-15 44 -52 70t-83 26t-83 -26.5t-52 -69.5zM1436 1006q0 -23 17 -40.5t40 -17.5t39 17t16 41v493q0 13 10 23t23 10h821q24 0 41 16t17 39t-17.5 40.5t-40.5 17.5h-821q-60 0 -102.5 -43t-42.5 -103v-493zM1608 61q0 -23 16 -39t41 -16 h737q24 0 41 16t17 39t-17.5 40.5t-40.5 17.5h-737q-24 0 -40.5 -17t-16.5 -41z" />
<glyph unicode="&#xe7;" d="M102 565q0 -145 71 -271t193.5 -203t266.5 -85l6 -6h33q100 0 195 37t171 104t124.5 157t62.5 189q3 22 -10.5 39.5t-36.5 20.5q-22 3 -39.5 -10.5t-20.5 -36.5q-26 -166 -149 -277q-120 -105 -277 -114h-20q-187 0 -323 135t-136 321v516q0 182 130 313.5t312 137.5h17 q171 0 297 -111q125 -113 147 -276q3 -23 21.5 -36.5t40.5 -10.5t35 20.5t10 40.5q-13 98 -61.5 187t-123.5 155q-146 131 -350 137h-16q-113 0 -218 -41.5t-184 -119.5q-80 -81 -124 -183t-44 -213v-516zM413 -589q0 -23 17 -40q67 -67 164 -67q94 0 164 67q66 68 66.5 163 t-66.5 163q-38 38 -94 57l30 51q12 20 6 43t-26 33q-20 12 -43 7t-33 -25l-76 -127q-20 -30 0 -60t56 -24q58 6 100 -33q34 -35 34 -84.5t-34 -83.5q-35 -35 -84.5 -35t-83.5 35q-17 15 -40 15t-40 -15q-17 -17 -17 -40z" />
<glyph unicode="&#xe8;" horiz-adv-x="1224" d="M102 143v613q0 59 42 101t100 42h825q22 0 37.5 -16t15.5 -39t-15.5 -39.5t-37.5 -16.5h-825q-14 0 -24.5 -9.5t-10.5 -22.5v-613q0 -15 10.5 -24.5t24.5 -9.5h825q22 0 37.5 -16t15.5 -38q0 -23 -15.5 -39t-37.5 -16h-825q-59 0 -100.5 41.5t-41.5 101.5zM102 1001v494 q0 60 41.5 101.5t100.5 41.5h825q22 0 37.5 -15.5t15.5 -37.5q0 -23 -15.5 -39t-37.5 -16h-825q-14 0 -24.5 -10t-10.5 -25v-494q0 -23 -15 -39t-38 -16t-38.5 16t-15.5 39zM360 2216q-5 -23 7 -43l225 -363q16 -26 49 -26q18 0 29 8q20 12 25 35t-7 43l-225 362 q-12 20 -35 25.5t-43 -6.5t-25 -35z" />
<glyph unicode="&#xe9;" horiz-adv-x="1224" d="M102 143v613q0 59 42 101t100 42h825q22 0 37.5 -16t15.5 -39t-15.5 -39.5t-37.5 -16.5h-825q-14 0 -24.5 -9.5t-10.5 -22.5v-613q0 -15 10.5 -24.5t24.5 -9.5h825q22 0 37.5 -16t15.5 -38q0 -23 -15.5 -39t-37.5 -16h-825q-59 0 -100.5 41.5t-41.5 101.5zM102 1001v494 q0 60 41.5 101.5t100.5 41.5h825q22 0 37.5 -15.5t15.5 -37.5q0 -23 -15.5 -39t-37.5 -16h-825q-14 0 -24.5 -10t-10.5 -25v-494q0 -23 -15 -39t-38 -16t-38.5 16t-15.5 39zM519.5 1827q5.5 -23 25.5 -35q13 -8 28 -8q34 0 50 26l225 363q12 20 6.5 43t-25.5 35t-42.5 6.5 t-34.5 -25.5l-226 -362q-12 -20 -6.5 -43z" />
<glyph unicode="&#xea;" horiz-adv-x="1224" d="M102 143v613q0 59 42 101t100 42h825q22 0 37.5 -16t15.5 -39t-15.5 -39.5t-37.5 -16.5h-825q-14 0 -24.5 -9.5t-10.5 -22.5v-613q0 -15 10.5 -24.5t24.5 -9.5h825q22 0 37.5 -16t15.5 -38q0 -23 -15.5 -39t-37.5 -16h-825q-59 0 -100.5 41.5t-41.5 101.5zM102 1001v494 q0 60 41.5 101.5t100.5 41.5h825q22 0 37.5 -15.5t15.5 -37.5q0 -23 -15.5 -39t-37.5 -16h-825q-14 0 -24.5 -10t-10.5 -25v-494q0 -23 -15 -39t-38 -16t-38.5 16t-15.5 39zM281 1834.5q2 -23.5 20 -38.5q19 -14 43 -11.5t37 19.5l207 262q13 13 28 13q16 0 29 -13l207 -262 q17 -20 43 -20q20 0 35 12q18 15 21 38t-11 42l-207 260q-46 55 -117 55q-70 0 -116 -55l-207 -260q-14 -18 -12 -41.5z" />
<glyph unicode="&#xeb;" horiz-adv-x="1224" d="M102 143v613q0 59 42 101t100 42h825q22 0 37.5 -16t15.5 -39t-15.5 -39.5t-37.5 -16.5h-825q-14 0 -24.5 -9.5t-10.5 -22.5v-613q0 -15 10.5 -24.5t24.5 -9.5h825q22 0 37.5 -16t15.5 -38q0 -23 -15.5 -39t-37.5 -16h-825q-59 0 -100.5 41.5t-41.5 101.5zM102 1001v494 q0 60 41.5 101.5t100.5 41.5h825q22 0 37.5 -15.5t15.5 -37.5q0 -23 -15.5 -39t-37.5 -16h-825q-14 0 -24.5 -10t-10.5 -25v-494q0 -23 -15 -39t-38 -16t-38.5 16t-15.5 39zM211 1946q0 -89 74 -150q19 -14 42 -11t38 21q14 19 11 42t-22 36q-30 27 -30 62q0 31 22 53t53 22 t53.5 -22t22.5 -53q0 -37 -31 -62q-19 -13 -21 -36t13 -42q16 -22 43 -22q20 0 35 12q74 58 74 150q0 78 -55.5 133t-133.5 55t-133 -55t-55 -133zM662 1946q0 -90 73 -150q19 -14 42 -11t38 21q14 19 11 42t-21 36q-31 28 -31 62q0 31 22.5 53t53.5 22t53.5 -22t22.5 -53 q0 -37 -31 -62q-19 -13 -21 -36t13 -42q16 -22 43 -22q20 0 35 12q73 57 73 150q0 78 -55 133t-133 55t-133 -55t-55 -133z" />
<glyph unicode="&#xec;" horiz-adv-x="311" d="M-152 2216q-5 -23 7 -43l225 -363q16 -26 49 -26q18 0 29 8q20 12 25 35t-7 43l-225 362q-12 20 -35 25.5t-43 -6.5t-25 -35zM102 53q0 -22 15.5 -37.5t38.5 -15.5q22 0 37.5 15.5t15.5 37.5v1532q0 22 -15.5 37.5t-37.5 15.5q-23 0 -38.5 -15.5t-15.5 -37.5v-1532z" />
<glyph unicode="&#xed;" horiz-adv-x="311" d="M102 53q0 -22 15.5 -37.5t38.5 -15.5q22 0 37.5 15.5t15.5 37.5v1532q0 22 -15.5 37.5t-37.5 15.5q-23 0 -38.5 -15.5t-15.5 -37.5v-1532zM104 1827q5 -23 25 -35q13 -8 29 -8q33 0 49 26l225 363q12 20 7 43t-25 35t-43 6.5t-35 -25.5l-225 -362q-12 -20 -7 -43z" />
<glyph unicode="&#xee;" horiz-adv-x="311" d="M-149 1834.5q2 -23.5 20 -38.5q19 -14 43 -11.5t37 19.5l207 262q13 13 28 13q16 0 29 -13l207 -262q17 -20 43 -20q20 0 35 12q18 15 21 38t-11 42l-207 260q-46 55 -117 55q-70 0 -116 -55l-207 -260q-14 -18 -12 -41.5zM102 53q0 -22 15.5 -37.5t38.5 -15.5 q22 0 37.5 15.5t15.5 37.5v1532q0 22 -15.5 37.5t-37.5 15.5q-23 0 -38.5 -15.5t-15.5 -37.5v-1532z" />
<glyph unicode="&#xef;" horiz-adv-x="311" d="M-262 1946q0 -89 74 -150q19 -14 41.5 -11t37.5 21q14 19 11 42t-21 36q-31 28 -31 62q0 31 22.5 53t53.5 22t53.5 -22t22.5 -53q0 -37 -31 -62q-19 -13 -21 -36t13 -42q16 -22 43 -22q20 0 35 12q74 58 74 150q0 78 -55.5 133t-133.5 55t-133 -55t-55 -133zM102 53 q0 -22 15.5 -37.5t38.5 -15.5q22 0 37.5 15.5t15.5 37.5v1532q0 22 -15.5 37.5t-37.5 15.5q-23 0 -38.5 -15.5t-15.5 -37.5v-1532zM188 1946q0 -89 74 -150q19 -14 42 -11t38 21q14 19 11 42t-21 36q-31 28 -31 62q0 31 22.5 53t53.5 22t53.5 -22t22.5 -53q0 -37 -31 -62 q-19 -13 -21 -36t13 -42q16 -22 43 -22q20 0 35 12q73 57 73 150q0 78 -55 133t-133 55t-133.5 -55t-55.5 -133z" />
<glyph unicode="&#xf1;" horiz-adv-x="1320" d="M102 61q0 -22 16 -37.5t38 -15.5q23 0 39 15.5t16 37.5v1418q0 22 18 22q18 6 27 -12l713 -1405q22 -43 62.5 -62t86.5 -8q46 10 73.5 46t27.5 83v1450q0 22 -15.5 38t-38.5 16q-22 0 -37.5 -16t-15.5 -38v-1450q0 -18 -18 -24q-19 -5 -29 12l-713 1407q-22 42 -63 61 t-86 9q-44 -10 -72.5 -46.5t-28.5 -82.5v-1418zM212 1913.5q-8 -21.5 1 -43.5q10 -22 32 -30t44 1l2 2q61 25 110 25q44 0 93 -19q148 -65 260 -65q53 0 96 14q59 17 117 68q18 15 19.5 38t-13.5 40q-15 18 -39 19.5t-41 -13.5q-36 -33 -76 -45q-40 -9 -63 -9q-88 0 -215 56 q-70 28 -138 28q-86 0 -155 -34q-2 0 -4 -2q-22 -9 -30 -30.5z" />
<glyph unicode="&#xf2;" d="M102 557q0 -204 131 -360t326 -191q4 -2 10 -2q21 0 36 12.5t18 32.5q5 22 -8 40.5t-35 21.5q-163 32 -265 155q-106 125 -106 291v526q0 187 133 320t322 133t319 -133q65 -63 100 -146t35 -174v-526q0 -168 -108 -291q-98 -122 -262 -155q-23 -3 -35.5 -21.5 t-7.5 -40.5q3 -23 21 -35.5t40 -7.5q96 17 180.5 66.5t145.5 124.5q133 155 133 360v526q0 112 -43 215t-123 181q-78 79 -180.5 121t-216.5 42q-233 0 -396 -163q-79 -78 -121.5 -180.5t-42.5 -215.5v-526zM362 2216q-5 -23 7 -43l225 -363q16 -26 49 -26q18 0 29 8 q20 12 25 35t-7 43l-225 362q-12 20 -35 25.5t-43 -6.5t-25 -35z" />
<glyph unicode="&#xf3;" d="M102 557q0 -204 131 -360t326 -191q4 -2 10 -2q21 0 36 12.5t18 32.5q5 22 -8 40.5t-35 21.5q-163 32 -265 155q-106 125 -106 291v526q0 187 133 320t322 133t319 -133q65 -63 100 -146t35 -174v-526q0 -168 -108 -291q-98 -122 -262 -155q-23 -3 -35.5 -21.5 t-7.5 -40.5q3 -23 21 -35.5t40 -7.5q96 17 180.5 66.5t145.5 124.5q133 155 133 360v526q0 112 -43 215t-123 181q-78 79 -180.5 121t-216.5 42q-233 0 -396 -163q-79 -78 -121.5 -180.5t-42.5 -215.5v-526zM585 1827q5 -23 25 -35q13 -8 29 -8q33 0 49 26l225 363 q12 20 7 43t-25 35t-43 6.5t-35 -25.5l-225 -362q-12 -20 -7 -43z" />
<glyph unicode="&#xf4;" d="M102 557q0 -204 131 -360t326 -191q4 -2 10 -2q21 0 36 12.5t18 32.5q5 22 -8 40.5t-35 21.5q-163 32 -265 155q-106 125 -106 291v526q0 187 133 320t322 133t319 -133q65 -63 100 -146t35 -174v-526q0 -168 -108 -291q-98 -122 -262 -155q-23 -3 -35.5 -21.5 t-7.5 -40.5q3 -23 21 -35.5t40 -7.5q96 17 180.5 66.5t145.5 124.5q133 155 133 360v526q0 112 -43 215t-123 181q-78 79 -180.5 121t-216.5 42q-233 0 -396 -163q-79 -78 -121.5 -180.5t-42.5 -215.5v-526zM310 1834.5q2 -23.5 20 -38.5q19 -14 43 -11.5t37 19.5l206 262 q13 13 29 13t29 -13l207 -262q17 -20 43 -20q19 0 34 12q19 15 22 38t-11 42l-207 260q-46 55 -117 55t-117 -55l-206 -260q-14 -18 -12 -41.5z" />
<glyph unicode="&#xf5;" d="M102 557q0 -204 131 -360t326 -191q4 -2 10 -2q21 0 36 12.5t18 32.5q5 22 -8 40.5t-35 21.5q-163 32 -265 155q-106 125 -106 291v526q0 187 133 320t322 133t319 -133q65 -63 100 -146t35 -174v-526q0 -168 -108 -291q-98 -122 -262 -155q-23 -3 -35.5 -21.5 t-7.5 -40.5q3 -23 21 -35.5t40 -7.5q96 17 180.5 66.5t145.5 124.5q133 155 133 360v526q0 112 -43 215t-123 181q-78 79 -180.5 121t-216.5 42q-233 0 -396 -163q-79 -78 -121.5 -180.5t-42.5 -215.5v-526zM267 1913.5q-8 -21.5 1 -43.5q10 -22 32 -30t44 1l2 2 q61 25 111 25q43 0 92 -19q148 -65 260 -65q53 0 96 14q59 17 117 68q18 15 19.5 38t-13.5 40q-15 18 -39 19.5t-41 -13.5q-36 -33 -76 -45q-40 -9 -63 -9q-88 0 -215 56q-70 28 -137 28q-87 0 -156 -34q-2 0 -4 -2q-22 -9 -30 -30.5z" />
<glyph unicode="&#xf6;" d="M102 557q0 -204 131 -360t326 -191q4 -2 10 -2q21 0 36 12.5t18 32.5q5 22 -8 40.5t-35 21.5q-163 32 -265 155q-106 125 -106 291v526q0 187 133 320t322 133t319 -133q65 -63 100 -146t35 -174v-526q0 -168 -108 -291q-98 -122 -262 -155q-23 -3 -35.5 -21.5 t-7.5 -40.5q3 -23 21 -35.5t40 -7.5q96 17 180.5 66.5t145.5 124.5q133 155 133 360v526q0 112 -43 215t-123 181q-78 79 -180.5 121t-216.5 42q-233 0 -396 -163q-79 -78 -121.5 -180.5t-42.5 -215.5v-526zM229 1946q0 -89 74 -150q19 -14 42 -11t38 21q14 19 11 42t-21 36 q-31 28 -31 62q0 31 22.5 53t53.5 22t53.5 -22t22.5 -53q0 -37 -31 -62q-19 -13 -21 -36t13 -42q16 -22 43 -22q19 0 34 12q74 58 74 150q0 78 -55 133t-133 55t-133.5 -55t-55.5 -133zM680 1946q0 -89 74 -150q19 -14 42 -11t38 21q14 19 11 42t-22 36q-30 27 -30 62 q0 31 22 53t53 22t53.5 -22t22.5 -53q0 -37 -31 -62q-19 -13 -21 -36t13 -42q16 -22 43 -22q20 0 35 12q74 58 74 150q0 78 -55.5 133t-133.5 55t-133 -55t-55 -133z" />
<glyph unicode="&#xf8;" d="M102 557q0 -204 131 -360t326 -191q4 -2 10 -2q21 0 36 12.5t18 32.5q5 22 -8 40.5t-35 21.5q-163 32 -265 155q-106 125 -106 291v526q0 187 133 320t322 133t319 -133q65 -63 100 -146t35 -174v-526q0 -168 -108 -291q-98 -122 -262 -155q-23 -3 -35.5 -21.5 t-7.5 -40.5q3 -23 21 -35.5t40 -7.5q96 17 180.5 66.5t145.5 124.5q133 155 133 360v526q0 112 -43 215t-123 181q-78 79 -180.5 121t-216.5 42q-233 0 -396 -163q-79 -78 -121.5 -180.5t-42.5 -215.5v-526zM103 3.5q4 -22.5 24 -34.5q10 -10 31 -10q29 0 45 23l1122 1605 q14 19 10 41.5t-24 34.5q-19 14 -42 10.5t-36 -22.5l-1120 -1606q-14 -19 -10 -41.5z" />
<glyph unicode="&#xf9;" horiz-adv-x="1318" d="M102 557q0 -111 42.5 -213t121.5 -180q78 -79 180 -121.5t213 -42.5q232 0 396 164q78 78 120 180.5t42 212.5v1028q0 22 -15.5 37.5t-38.5 15.5q-22 0 -37.5 -15.5t-15.5 -37.5v-1028q0 -89 -34 -171.5t-97 -145.5q-134 -134 -320 -134q-89 0 -171.5 35t-145.5 99 q-133 130 -133 317v1028q0 22 -15 37.5t-38 15.5q-22 0 -38 -15.5t-16 -37.5v-1028zM364 2216q-5 -23 7 -43l225 -363q16 -26 49 -26q18 0 29 8q20 12 25 35t-7 43l-225 362q-12 20 -35 25.5t-43 -6.5t-25 -35z" />
<glyph unicode="&#xfa;" horiz-adv-x="1318" d="M102 557q0 -111 42.5 -213t121.5 -180q78 -79 180 -121.5t213 -42.5q232 0 396 164q78 78 120 180.5t42 212.5v1028q0 22 -15.5 37.5t-38.5 15.5q-22 0 -37.5 -15.5t-15.5 -37.5v-1028q0 -89 -34 -171.5t-97 -145.5q-134 -134 -320 -134q-89 0 -171.5 35t-145.5 99 q-133 130 -133 317v1028q0 22 -15 37.5t-38 15.5q-22 0 -38 -15.5t-16 -37.5v-1028zM609.5 1827q5.5 -23 25.5 -35q13 -8 29 -8q33 0 49 26l225 363q12 20 7 43t-25 35t-43 6.5t-35 -25.5l-226 -362q-12 -20 -6.5 -43z" />
<glyph unicode="&#xfb;" horiz-adv-x="1318" d="M102 557q0 -111 42.5 -213t121.5 -180q78 -79 180 -121.5t213 -42.5q232 0 396 164q78 78 120 180.5t42 212.5v1028q0 22 -15.5 37.5t-38.5 15.5q-22 0 -37.5 -15.5t-15.5 -37.5v-1028q0 -89 -34 -171.5t-97 -145.5q-134 -134 -320 -134q-89 0 -171.5 35t-145.5 99 q-133 130 -133 317v1028q0 22 -15 37.5t-38 15.5q-22 0 -38 -15.5t-16 -37.5v-1028zM307.5 1834.5q2.5 -23.5 20.5 -38.5q19 -14 43 -11.5t37 19.5l206 262q13 13 29 13t29 -13l207 -262q17 -20 43 -20q19 0 34 12q19 15 22 38t-11 42l-207 260q-46 55 -117 55t-117 -55 l-207 -260q-14 -18 -11.5 -41.5z" />
<glyph unicode="&#xfc;" horiz-adv-x="1318" d="M102 557q0 -111 42.5 -213t121.5 -180q78 -79 180 -121.5t213 -42.5q232 0 396 164q78 78 120 180.5t42 212.5v1028q0 22 -15.5 37.5t-38.5 15.5q-22 0 -37.5 -15.5t-15.5 -37.5v-1028q0 -89 -34 -171.5t-97 -145.5q-134 -134 -320 -134q-89 0 -171.5 35t-145.5 99 q-133 130 -133 317v1028q0 22 -15 37.5t-38 15.5q-22 0 -38 -15.5t-16 -37.5v-1028zM279 1946q0 -90 73 -150q19 -14 42 -11t38 21q14 19 11 42t-21 36q-31 28 -31 62q0 31 22.5 53t53.5 22t53.5 -22t22.5 -53q0 -37 -31 -62q-19 -13 -21 -36t13 -42q16 -22 43 -22 q20 0 35 12q73 57 73 150q0 78 -55 133t-133 55t-133 -55t-55 -133zM729 1946q0 -89 74 -150q19 -14 42 -11t38 21q14 19 11 42t-22 36q-30 27 -30 62q0 31 22.5 53t53.5 22t53 -22t22 -53q0 -38 -30 -62q-19 -13 -21.5 -36t12.5 -42q16 -22 43 -22q20 0 35 12q74 58 74 150 q0 78 -55 133t-133 55t-133.5 -55t-55.5 -133z" />
<glyph unicode="&#xfd;" horiz-adv-x="1353" d="M104.5 1596q4.5 22 22.5 34q19 12 40.5 7.5t33.5 -23.5l430 -668q12 -19 7 -40.5t-24 -33.5q-16 -8 -28 -8q-27 0 -45 25l-430 667q-11 18 -6.5 40zM596 53v574q0 86 43 153l516 805q11 19 32 24t40 -7t23.5 -33.5t-7.5 -40.5l-516 -805q-27 -43 -27 -96v-574 q0 -22 -15.5 -37.5t-37.5 -15.5t-36.5 15.5t-14.5 37.5zM609.5 1827q5.5 -23 25.5 -35q13 -8 29 -8q33 0 49 26l225 363q12 20 7 43t-25 35t-43 6.5t-35 -25.5l-226 -362q-12 -20 -6.5 -43z" />
<glyph unicode="&#xfe;" horiz-adv-x="1130" d="M102 61q0 -23 16.5 -39t41.5 -16q23 0 39 16t16 39v1280q0 24 -16 41t-39 17q-24 0 -41 -17t-17 -41v-1280zM311 410q0 -23 16.5 -39.5t41.5 -16.5h262q164 0 280.5 117t116.5 281q0 163 -116.5 279t-280.5 116h-262q-25 0 -41.5 -16t-16.5 -39q0 -25 16.5 -41.5 t41.5 -16.5h262q118 0 201 -82.5t83 -199.5q0 -119 -83 -202t-201 -83h-262q-25 0 -41.5 -16t-16.5 -41z" />
<glyph unicode="&#xff;" horiz-adv-x="1353" d="M104.5 1596q4.5 22 22.5 34q19 12 40.5 7.5t33.5 -23.5l430 -668q12 -19 7 -40.5t-24 -33.5q-16 -8 -28 -8q-27 0 -45 25l-430 667q-11 18 -6.5 40zM221 1946q0 -89 74 -150q19 -14 42 -11t38 21q14 19 11 42t-21 36q-31 28 -31 62q0 31 22.5 53t53.5 22t53 -22t22 -53 q0 -38 -30 -62q-19 -13 -21.5 -36t12.5 -42q16 -22 43 -22q20 0 35 12q74 58 74 150q0 78 -55 133t-133 55t-133.5 -55t-55.5 -133zM596 53v574q0 86 43 153l516 805q11 19 32 24t40 -7t23.5 -33.5t-7.5 -40.5l-516 -805q-27 -43 -27 -96v-574q0 -22 -15.5 -37.5 t-37.5 -15.5t-36.5 15.5t-14.5 37.5zM672 1946q0 -90 73 -150q19 -14 42 -11t38 21q14 19 11 42t-21 36q-31 28 -31 62q0 31 22.5 53t53.5 22t53.5 -22t22.5 -53q0 -37 -31 -62q-19 -13 -21 -36t13 -42q16 -22 43 -22q20 0 35 12q74 58 74 150q0 78 -55.5 133t-133.5 55 t-133 -55t-55 -133z" />
<glyph unicode="&#x152;" horiz-adv-x="2408" d="M102 557q0 -204 131 -360q130 -155 328 -191q1 0 4.5 -1t5.5 -1q20 0 35.5 13.5t20.5 33.5q4 23 -9 42t-36 24q-160 29 -263.5 154t-103.5 286v524q0 184 131 318q131 131 318 131q184 0 315 -131q131 -134 131 -318v-524q0 -164 -104 -289q-104 -123 -261 -151 q-22 -4 -34.5 -21.5t-10.5 -40.5q1 -21 17.5 -35t38.5 -14h481q66 0 112 46t46 112v581q0 20 13.5 34t33.5 14h807q25 0 41 16t16 39q0 25 -16 41t-41 16h-807q-66 0 -113 -47t-47 -113v-581q0 -19 -13 -32t-32 -13h-225q40 32 80 78q131 156 131 360v524q0 113 -42.5 216 t-121.5 182q-166 163 -395 163q-112 0 -215 -42.5t-183 -120.5q-79 -79 -121.5 -182t-42.5 -216v-524zM1282 1006q0 -23 17 -40.5t40 -17.5t39.5 17.5t16.5 40.5v493q0 14 9.5 23.5t22.5 9.5h822q25 0 41 16t16 39q0 24 -16.5 41t-40.5 17h-822q-60 0 -102.5 -43t-42.5 -103 v-493zM1454 61q0 -23 17 -39t40 -16h738q25 0 41 16t16 39q0 24 -16.5 41t-40.5 17h-738q-23 0 -40 -17.5t-17 -40.5z" />
<glyph unicode="&#x153;" horiz-adv-x="2408" d="M102 557q0 -204 131 -360q130 -155 328 -191q1 0 4.5 -1t5.5 -1q20 0 35.5 13.5t20.5 33.5q4 23 -9 42t-36 24q-160 29 -263.5 154t-103.5 286v524q0 184 131 318q131 131 318 131q184 0 315 -131q131 -134 131 -318v-524q0 -164 -104 -289q-104 -123 -261 -151 q-22 -4 -34.5 -21.5t-10.5 -40.5q1 -21 17.5 -35t38.5 -14h481q66 0 112 46t46 112v581q0 20 13.5 34t33.5 14h807q25 0 41 16t16 39q0 25 -16 41t-41 16h-807q-66 0 -113 -47t-47 -113v-581q0 -19 -13 -32t-32 -13h-225q40 32 80 78q131 156 131 360v524q0 113 -42.5 216 t-121.5 182q-166 163 -395 163q-112 0 -215 -42.5t-183 -120.5q-79 -79 -121.5 -182t-42.5 -216v-524zM1282 1006q0 -23 17 -40.5t40 -17.5t39.5 17.5t16.5 40.5v493q0 14 9.5 23.5t22.5 9.5h822q25 0 41 16t16 39q0 24 -16.5 41t-40.5 17h-822q-60 0 -102.5 -43t-42.5 -103 v-493zM1454 61q0 -23 17 -39t40 -16h738q25 0 41 16t16 39q0 24 -16.5 41t-40.5 17h-738q-23 0 -40 -17.5t-17 -40.5z" />
<glyph unicode="&#x178;" horiz-adv-x="1353" d="M104.5 1596q4.5 22 22.5 34q19 12 40.5 7.5t33.5 -23.5l430 -668q12 -19 7 -40.5t-24 -33.5q-16 -8 -28 -8q-27 0 -45 25l-430 667q-11 18 -6.5 40zM270 1946q0 -89 74 -150q19 -14 42 -11t38 21q14 19 11 42t-21 36q-31 28 -31 62q0 31 22.5 53t53.5 22t53.5 -22 t22.5 -53q0 -37 -31 -62q-19 -13 -21 -36t13 -42q16 -22 43 -22q19 0 34 12q74 58 74 150q0 78 -55 133t-133 55t-133.5 -55t-55.5 -133zM596 53v574q0 86 43 153l516 805q11 19 32 24t40 -7t23.5 -33.5t-7.5 -40.5l-516 -805q-27 -43 -27 -96v-574q0 -22 -15.5 -37.5 t-37.5 -15.5t-36.5 15.5t-14.5 37.5zM721 1946q0 -89 74 -150q19 -14 41.5 -11t37.5 21q14 19 11 42t-21 36q-30 27 -30 62q0 31 22 53t53 22t53.5 -22t22.5 -53q0 -37 -31 -62q-19 -13 -21 -36t13 -42q16 -22 43 -22q20 0 35 12q74 58 74 150q0 78 -55.5 133t-133.5 55 t-133 -55t-55 -133z" />
<glyph unicode="&#x2c6;" horiz-adv-x="876" d="M103 1834.5q2 -23.5 20 -38.5q19 -14 43 -11.5t37 19.5l207 262q13 13 28 13q16 0 29 -13l207 -262q17 -20 43 -20q20 0 35 12q18 15 21 38t-11 42l-207 260q-46 55 -117 55q-70 0 -116 -55l-207 -260q-14 -18 -12 -41.5z" />
<glyph unicode="&#x2dc;" horiz-adv-x="983" d="M105 1913.5q-8 -21.5 1 -43.5q10 -22 32 -30t44 1l2 2q61 25 111 25q43 0 92 -19q148 -65 260 -65q53 0 96 14q59 17 117 68q18 15 19.5 38t-13.5 40q-15 18 -39 19.5t-41 -13.5q-37 -34 -75 -45q-41 -9 -64 -9q-88 0 -215 56q-70 28 -137 28q-87 0 -156 -34q-2 0 -4 -2 q-22 -9 -30 -30.5z" />
<glyph unicode="&#x2000;" horiz-adv-x="1159" />
<glyph unicode="&#x2001;" horiz-adv-x="2318" />
<glyph unicode="&#x2002;" horiz-adv-x="1159" />
<glyph unicode="&#x2003;" horiz-adv-x="2318" />
<glyph unicode="&#x2004;" horiz-adv-x="772" />
<glyph unicode="&#x2005;" horiz-adv-x="579" />
<glyph unicode="&#x2006;" horiz-adv-x="386" />
<glyph unicode="&#x2007;" horiz-adv-x="386" />
<glyph unicode="&#x2008;" horiz-adv-x="289" />
<glyph unicode="&#x2009;" horiz-adv-x="463" />
<glyph unicode="&#x200a;" horiz-adv-x="128" />
<glyph unicode="&#x2010;" horiz-adv-x="931" d="M102 737q0 -23 16 -38t38 -15h618q23 0 39 15t16 38q0 22 -16 38t-39 16h-618q-22 0 -38 -16t-16 -38z" />
<glyph unicode="&#x2011;" horiz-adv-x="931" d="M102 737q0 -23 16 -38t38 -15h618q23 0 39 15t16 38q0 22 -16 38t-39 16h-618q-22 0 -38 -16t-16 -38z" />
<glyph unicode="&#x2012;" horiz-adv-x="931" d="M102 737q0 -23 16 -38t38 -15h618q23 0 39 15t16 38q0 22 -16 38t-39 16h-618q-22 0 -38 -16t-16 -38z" />
<glyph unicode="&#x2013;" horiz-adv-x="1075" d="M102 737q0 -23 16 -38t38 -15h762q23 0 39 15t16 38q0 22 -16 38t-39 16h-762q-22 0 -38 -16t-16 -38z" />
<glyph unicode="&#x2014;" horiz-adv-x="1505" d="M102 737q0 -23 16 -38t38 -15h1192q23 0 39 15t16 38q0 22 -16 38t-39 16h-1192q-22 0 -38 -16t-16 -38z" />
<glyph unicode="&#x2018;" horiz-adv-x="561" d="M106 1262q12 -66 56 -113q54 -57 127 -57q71 0 120.5 50t49.5 120q0 44 -22.5 82.5t-59.5 62.5q-20 12 -42 7.5t-34 -23.5q-11 -19 -5.5 -41.5t23.5 -32.5q33 -24 33 -55q0 -26 -18.5 -45t-44.5 -19q-31 0 -51 26t-25 56q-12 69 25 139q42 78 139 109q22 8 32 27.5 t3 39.5q-6 22 -26 32t-42 3q-137 -42 -199 -157q-58 -103 -39 -211z" />
<glyph unicode="&#x2019;" horiz-adv-x="561" d="M102 1470q0 -43 22.5 -82.5t59.5 -62.5q20 -12 42 -7.5t34 23.5q11 20 6 42t-24 32q-33 24 -33 55q0 26 18.5 45t44.5 19q31 0 51 -26t25 -56q13 -71 -24 -139q-45 -79 -140 -109q-22 -6 -32 -25.5t-2 -41.5q4 -17 18.5 -27t32.5 -10q10 0 16 2q137 45 199 160 q58 99 39 208q-12 64 -56 115q-52 55 -127 55q-70 0 -120 -50t-50 -120z" />
<glyph unicode="&#x201c;" horiz-adv-x="991" d="M106 1262q13 -70 56 -113q51 -57 125 -57q71 0 121.5 50t50.5 120q0 44 -22.5 83t-61.5 62q-19 12 -40.5 7.5t-33.5 -23.5q-11 -18 -6.5 -41t24.5 -33q31 -22 31 -55q0 -27 -18 -45.5t-45 -18.5q-29 0 -49 26t-25 56q-13 74 25 139q42 78 139 109q21 7 31 26.5t4 40.5 q-6 22 -26 32t-42 3q-137 -42 -199 -157q-58 -103 -39 -211zM537 1262q13 -71 55 -113q51 -57 125 -57q71 0 121.5 50t50.5 120q0 44 -22.5 83t-61.5 62q-19 12 -40.5 7.5t-33.5 -23.5q-11 -18 -6 -41t25 -33q30 -21 30 -55q0 -27 -18 -45.5t-45 -18.5q-29 0 -49 26t-25 56 q-13 74 25 139q42 78 139 109q21 7 31 26.5t4 40.5q-6 22 -26 32t-42 3q-137 -42 -199 -157q-57 -101 -38 -211z" />
<glyph unicode="&#x201d;" horiz-adv-x="991" d="M102 1470q0 -43 22.5 -82.5t59.5 -62.5q20 -12 42 -7.5t34 23.5q11 20 6 42t-24 32q-33 24 -33 55q0 26 18.5 45t44.5 19q31 0 51 -26t25 -56q13 -71 -24 -139q-45 -79 -140 -109q-22 -6 -32 -25.5t-2 -41.5q4 -17 18.5 -27t32.5 -10q10 0 16 2q137 45 199 160 q58 99 39 208q-12 64 -56 115q-52 55 -127 55q-70 0 -120 -50t-50 -120zM532 1470q0 -43 22.5 -82.5t59.5 -62.5q20 -12 42 -7.5t34 23.5q11 20 6 42t-24 32q-33 24 -33 55q0 26 18.5 45t44.5 19q31 0 51 -26t25 -56q13 -71 -24 -139q-45 -79 -140 -109q-22 -6 -32 -25.5 t-2 -41.5q4 -17 18.5 -27t32.5 -10q10 0 16 2q137 45 199 160q58 99 39 208q-12 64 -56 115q-52 55 -127 55q-70 0 -120 -50t-50 -120z" />
<glyph unicode="&#x202f;" horiz-adv-x="463" />
<glyph unicode="&#x205f;" horiz-adv-x="579" />
<glyph unicode="&#x20ac;" horiz-adv-x="1323" d="M102 567q0 -151 74 -279.5t201.5 -204t277.5 -77.5h9q211 0 370 137q160 144 187 344q3 23 -12 42t-38 22t-41.5 -10.5t-21.5 -36.5q-22 -166 -147 -275q-129 -110 -289 -110h-8q-186 0 -317.5 131t-131.5 317v152h354q57 0 97.5 40t40.5 97q0 56 -40.5 95.5t-97.5 39.5 h-354v92q0 184 129.5 314.5t314.5 132.5h5q171 0 294 -111q128 -110 150 -274q3 -23 21.5 -37.5t41.5 -11.5t37 21.5t11 41.5q-28 204 -185 346q-159 137 -364 137q-1 0 -3 1.5t-3 1.5q-112 0 -215 -43t-183 -123q-78 -78 -121 -181t-43 -215v-106q0 -40 29 -69t70 -29h368 q11 0 18 -7.5t7 -17.5q0 -9 -7.5 -16t-17.5 -7h-368q-41 0 -70 -29t-29 -69v-166z" />
<glyph unicode="&#x2122;" horiz-adv-x="1456" d="M102 1587q0 -23 16.5 -39t41.5 -16h313q8 0 14.5 -7t6.5 -16t-6.5 -14.5t-14.5 -5.5h-84q-38 0 -64 -27t-26 -65v-404q0 -25 16 -41t39 -16q24 0 41 16.5t17 40.5v383h61q55 0 94 39t39 94q0 56 -39 96t-94 40h-313q-24 0 -41 -17t-17 -41zM461 1569q0 -4 6 -4h94v-2v-2 h-35q-14 0 -14 -15v-129q0 -6 4 -6q6 0 6 6v129q0 4 4 4h35q10 0 10 13q0 12 -10 12h-94q-6 0 -6 -6zM696 993q0 -23 16.5 -39t39.5 -16t40 16t17 39v445l137 -320q11 -23 32.5 -37t47.5 -14t47.5 14t32.5 37l135 316v-443q0 -24 16.5 -40.5t40.5 -16.5t40 16t16 41v568 q0 32 -19.5 56t-50.5 30q-30 6 -57 -8.5t-39 -43.5l-162 -374l-164 376q-12 29 -39.5 43.5t-58.5 8.5q-30 -6 -49 -30.5t-19 -55.5v-568zM1190 1436q0 -6 6 -6q4 0 4 6v145l2 2q2 0 4 -2l47 -111q3 -6 13 -6q9 0 12 6l47 111l2 2q0 -1 1 -2t1 -2v-143q0 -6 6 -6q4 0 4 6v143 q0 6 -2 10q-1 1 -4 2t-4 2q-6 0 -8 -2l-6 -6l-47 -110h-2h-2l-50 110q0 6 -6 6q-2 2 -8 2q-2 0 -6 -4t-4 -8v-145z" />
<glyph unicode="&#x25fc;" horiz-adv-x="1648" d="M0 0v1649h1649v-1649h-1649z" />
</font>
</defs>
</svg>
